{
  "source": "C:\\Users\\Peter\\Desktop\\stuff\\MIUN\\quantitative_research\\video_compression\\videos\\UVG\\Bosphorus_1920x1080_120fps_420_8bit_YUV.y4m",
  "output": "C:\\Users\\Peter\\Desktop\\stuff\\MIUN\\quantitative_research\\video_compression\\compressed_videos\\UVG\\vp9\\12\\Bosphorus_1920x1080_120fps_420_8bit_YUV_vp9.webm",
  "codec": "vp9",
  "ok": "[yuv4mpegpipe @ 0000024bbc7554c0] Stream #0: not enough frames to estimate rate; consider increasing probesize\nInput #0, yuv4mpegpipe, from 'C:\\Users\\Peter\\Desktop\\stuff\\MIUN\\quantitative_research\\video_compression\\videos\\UVG\\Bosphorus_1920x1080_120fps_420_8bit_YUV.y4m':\n  Duration: 00:00:05.00, start: 0.000000, bitrate: 2985989 kb/s\n  Stream #0:0: Video: rawvideo (I420 / 0x30323449), yuv420p(progressive), 1920x1080, 120 fps, 120 tbr, 120 tbn\n[out#0/webm @ 0000024bbc759480] Codec AVOption b:a (set bitrate (in bits/s)) has not been used for any stream. The most likely reason is either wrong type (e.g. a video option with no video streams) or that it is a private option of some decoder which was not actually used for any stream.\nStream mapping:\n  Stream #0:0 -> #0:0 (rawvideo (native) -> vp9 (libvpx-vp9))\nPress [q] to stop, [?] for help\n[libvpx-vp9 @ 0000024bbc75c4c0] v1.15.2-100-g40561f514\nOutput #0, webm, to 'C:\\Users\\Peter\\Desktop\\stuff\\MIUN\\quantitative_research\\video_compression\\compressed_videos\\UVG\\vp9\\12\\Bosphorus_1920x1080_120fps_420_8bit_YUV_vp9.webm':\n  Metadata:\n    encoder         : Lavf62.3.100\n  Stream #0:0: Video: vp9, yuv420p(tv, progressive), 1920x1080, q=2-31, 12000 kb/s, 120 fps, 1k tbn\n    Metadata:\n      encoder         : Lavc62.11.100 libvpx-vp9\n    Side data:\n      cpb: bitrate max/min/avg: 0/0/0 buffer size: 12000000 vbv_delay: N/A\nframe=    0 fps=0.0 q=0.0 size=       0KiB time=N/A bitrate=N/A speed=N/A elapsed=0:00:00.51    \nframe=    0 fps=0.0 q=0.0 size=       0KiB time=N/A bitrate=N/A speed=N/A elapsed=0:00:01.06    \nframe=    2 fps=1.2 q=31.0 size=       0KiB time=00:00:00.01 bitrate= 230.9kbits/s speed=0.0104x elapsed=0:00:01.60    \nframe=    3 fps=1.4 q=47.0 size=       0KiB time=00:00:00.02 bitrate= 153.9kbits/s speed=0.0117x elapsed=0:00:02.13    \nframe=    4 fps=1.5 q=29.0 size=       0KiB time=00:00:00.03 bitrate= 115.4kbits/s speed=0.0124x elapsed=0:00:02.69    \nframe=    6 fps=1.9 q=29.0 size=       0KiB time=00:00:00.05 bitrate=  77.0kbits/s speed=0.0155x elapsed=0:00:03.22    \nframe=    7 fps=1.9 q=32.0 size=       0KiB time=00:00:00.05 bitrate=  66.0kbits/s speed=0.0155x elapsed=0:00:03.77    \nframe=    8 fps=1.8 q=29.0 size=       0KiB time=00:00:00.06 bitrate=  57.7kbits/s speed=0.0153x elapsed=0:00:04.36    \nframe=    9 fps=1.8 q=32.0 size=       0KiB time=00:00:00.06 bitrate=  57.7kbits/s speed=0.0136x elapsed=0:00:04.91    \nframe=    9 fps=1.6 q=32.0 size=       0KiB time=00:00:00.07 bitrate=  51.3kbits/s speed=0.0137x elapsed=0:00:05.47    \nframe=   10 fps=1.7 q=29.0 size=       0KiB time=00:00:00.08 bitrate=  46.2kbits/s speed=0.0138x elapsed=0:00:06.03    \nframe=   11 fps=1.7 q=33.0 size=       0KiB time=00:00:00.09 bitrate=  42.0kbits/s speed=0.0139x elapsed=0:00:06.58    \nframe=   11 fps=1.5 q=33.0 size=       0KiB time=00:00:00.09 bitrate=  42.0kbits/s speed=0.0128x elapsed=0:00:07.16    \nframe=   12 fps=1.6 q=29.0 size=       0KiB time=00:00:00.10 bitrate=  38.5kbits/s speed=0.0129x elapsed=0:00:07.73    \nframe=   13 fps=1.6 q=33.0 size=       0KiB time=00:00:00.10 bitrate=  35.5kbits/s speed=0.013x elapsed=0:00:08.30    \nframe=   14 fps=1.6 q=29.0 size=       0KiB time=00:00:00.11 bitrate=  33.0kbits/s speed=0.0132x elapsed=0:00:08.86    \nframe=   15 fps=1.6 q=33.0 size=       0KiB time=00:00:00.12 bitrate=  30.8kbits/s speed=0.0132x elapsed=0:00:09.43    \nframe=   15 fps=1.5 q=33.0 size=       0KiB time=00:00:00.12 bitrate=  30.8kbits/s speed=0.0124x elapsed=0:00:10.04    \nframe=   15 fps=1.4 q=33.0 size=       0KiB time=00:00:00.12 bitrate=  30.8kbits/s speed=0.0118x elapsed=0:00:10.62    \nframe=   16 fps=1.4 q=25.0 size=       0KiB time=00:00:00.13 bitrate=  28.9kbits/s speed=0.0119x elapsed=0:00:11.17    \nframe=   17 fps=1.4 q=29.0 size=       0KiB time=00:00:00.14 bitrate=  27.2kbits/s speed=0.0121x elapsed=0:00:11.73    \nframe=   17 fps=1.4 q=29.0 size=       0KiB time=00:00:00.14 bitrate=  27.2kbits/s speed=0.0115x elapsed=0:00:12.30    \nframe=   18 fps=1.4 q=27.0 size=       0KiB time=00:00:00.15 bitrate=  25.7kbits/s speed=0.0117x elapsed=0:00:12.84    \nframe=   19 fps=1.4 q=31.0 size=       0KiB time=00:00:00.15 bitrate=  24.3kbits/s speed=0.0118x elapsed=0:00:13.37    \nframe=   19 fps=1.4 q=31.0 size=       0KiB time=00:00:00.15 bitrate=  24.3kbits/s speed=0.0114x elapsed=0:00:13.90    \nframe=   20 fps=1.4 q=29.0 size=       0KiB time=00:00:00.16 bitrate=  23.1kbits/s speed=0.0115x elapsed=0:00:14.44    \nframe=   21 fps=1.4 q=31.0 size=       0KiB time=00:00:00.17 bitrate=  22.0kbits/s speed=0.0117x elapsed=0:00:14.99    \nframe=   22 fps=1.4 q=30.0 size=       0KiB time=00:00:00.18 bitrate=  21.0kbits/s speed=0.0118x elapsed=0:00:15.53    \nframe=   23 fps=1.4 q=32.0 size=       0KiB time=00:00:00.19 bitrate=  20.1kbits/s speed=0.0119x elapsed=0:00:16.08    \nframe=   24 fps=1.4 q=30.0 size=       0KiB time=00:00:00.20 bitrate=  19.2kbits/s speed=0.012x elapsed=0:00:16.63    \nframe=   25 fps=1.5 q=32.0 size=       0KiB time=00:00:00.20 bitrate=  18.5kbits/s speed=0.0121x elapsed=0:00:17.18    \nframe=   26 fps=1.5 q=30.0 size=       0KiB time=00:00:00.21 bitrate=  17.8kbits/s speed=0.0122x elapsed=0:00:17.70    \nframe=   27 fps=1.5 q=32.0 size=       0KiB time=00:00:00.22 bitrate=  17.1kbits/s speed=0.0123x elapsed=0:00:18.25    \nframe=   27 fps=1.4 q=32.0 size=       0KiB time=00:00:00.22 bitrate=  17.1kbits/s speed=0.012x elapsed=0:00:18.79    \nframe=   28 fps=1.4 q=30.0 size=       0KiB time=00:00:00.23 bitrate=  16.5kbits/s speed=0.0121x elapsed=0:00:19.34    \nframe=   29 fps=1.5 q=32.0 size=       0KiB time=00:00:00.24 bitrate=  15.9kbits/s speed=0.0122x elapsed=0:00:19.88    \nframe=   30 fps=1.5 q=30.0 size=       0KiB time=00:00:00.25 bitrate=  15.4kbits/s speed=0.0122x elapsed=0:00:20.42    \nframe=   30 fps=1.4 q=30.0 size=       0KiB time=00:00:00.25 bitrate=  15.4kbits/s speed=0.0119x elapsed=0:00:20.96    \nframe=   30 fps=1.4 q=30.0 size=       0KiB time=00:00:00.25 bitrate=  15.4kbits/s speed=0.0116x elapsed=0:00:21.51    \nframe=   31 fps=1.4 q=20.0 size=       0KiB time=00:00:00.25 bitrate=  14.9kbits/s speed=0.0117x elapsed=0:00:22.04    \nframe=   32 fps=1.4 q=32.0 size=       0KiB time=00:00:00.26 bitrate=  14.4kbits/s speed=0.0118x elapsed=0:00:22.59    \nframe=   33 fps=1.4 q=26.0 size=       0KiB time=00:00:00.27 bitrate=  14.0kbits/s speed=0.0119x elapsed=0:00:23.15    \nframe=   34 fps=1.4 q=31.0 size=       0KiB time=00:00:00.28 bitrate=  13.6kbits/s speed=0.0119x elapsed=0:00:23.71    \nframe=   34 fps=1.4 q=31.0 size=       0KiB time=00:00:00.28 bitrate=  13.6kbits/s speed=0.0117x elapsed=0:00:24.27    \nframe=   35 fps=1.4 q=28.0 size=       0KiB time=00:00:00.29 bitrate=  13.2kbits/s speed=0.0118x elapsed=0:00:24.82    \nframe=   36 fps=1.4 q=31.0 size=       0KiB time=00:00:00.30 bitrate=  12.8kbits/s speed=0.0118x elapsed=0:00:25.36    \nframe=   37 fps=1.4 q=29.0 size=       0KiB time=00:00:00.30 bitrate=  12.5kbits/s speed=0.0119x elapsed=0:00:25.91    \nframe=   38 fps=1.4 q=31.0 size=       0KiB time=00:00:00.31 bitrate=  12.2kbits/s speed=0.012x elapsed=0:00:26.46    \nframe=   39 fps=1.4 q=29.0 size=       0KiB time=00:00:00.32 bitrate=  11.8kbits/s speed=0.012x elapsed=0:00:27.02    \nframe=   40 fps=1.5 q=31.0 size=       0KiB time=00:00:00.33 bitrate=  11.5kbits/s speed=0.0121x elapsed=0:00:27.56    \nframe=   41 fps=1.5 q=29.0 size=       0KiB time=00:00:00.34 bitrate=  11.3kbits/s speed=0.0122x elapsed=0:00:28.10    \nframe=   42 fps=1.5 q=31.0 size=       0KiB time=00:00:00.35 bitrate=  11.0kbits/s speed=0.0122x elapsed=0:00:28.65    \nframe=   42 fps=1.4 q=31.0 size=       0KiB time=00:00:00.35 bitrate=  11.0kbits/s speed=0.012x elapsed=0:00:29.22    \nframe=   43 fps=1.4 q=30.0 size=       0KiB time=00:00:00.35 bitrate=  10.7kbits/s speed=0.012x elapsed=0:00:29.76    \nframe=   43 fps=1.4 q=30.0 size=       0KiB time=00:00:00.35 bitrate=  10.7kbits/s speed=0.0118x elapsed=0:00:30.31    \nframe=   44 fps=1.4 q=32.0 size=       0KiB time=00:00:00.36 bitrate=  10.5kbits/s speed=0.0119x elapsed=0:00:30.86    \nframe=   45 fps=1.4 q=30.0 size=       0KiB time=00:00:00.37 bitrate=  10.3kbits/s speed=0.0119x elapsed=0:00:31.43    \nframe=   45 fps=1.4 q=30.0 size=       0KiB time=00:00:00.37 bitrate=  10.3kbits/s speed=0.0117x elapsed=0:00:32.03    \nframe=   45 fps=1.4 q=30.0 size=       0KiB time=00:00:00.37 bitrate=  10.3kbits/s speed=0.0115x elapsed=0:00:32.61    \nframe=   46 fps=1.4 q=20.0 size=       0KiB time=00:00:00.38 bitrate=  10.0kbits/s speed=0.0115x elapsed=0:00:33.19    \nframe=   47 fps=1.4 q=29.0 size=       0KiB time=00:00:00.39 bitrate=   9.8kbits/s speed=0.0116x elapsed=0:00:33.76    \nframe=   47 fps=1.4 q=29.0 size=       0KiB time=00:00:00.39 bitrate=   9.8kbits/s speed=0.0114x elapsed=0:00:34.33    \nframe=   48 fps=1.4 q=24.0 size=       0KiB time=00:00:00.40 bitrate=   9.6kbits/s speed=0.0115x elapsed=0:00:34.90    \nframe=   49 fps=1.4 q=29.0 size=       0KiB time=00:00:00.40 bitrate=   9.4kbits/s speed=0.0115x elapsed=0:00:35.48    \nframe=   50 fps=1.4 q=25.0 size=       0KiB time=00:00:00.41 bitrate=   9.2kbits/s speed=0.0116x elapsed=0:00:36.05    \nframe=   50 fps=1.4 q=25.0 size=       0KiB time=00:00:00.41 bitrate=   9.2kbits/s speed=0.0114x elapsed=0:00:36.60    \nframe=   51 fps=1.4 q=30.0 size=       0KiB time=00:00:00.42 bitrate=   9.1kbits/s speed=0.0114x elapsed=0:00:37.17    \nframe=   51 fps=1.3 q=30.0 size=       0KiB time=00:00:00.42 bitrate=   9.1kbits/s speed=0.0112x elapsed=0:00:37.79    \nframe=   52 fps=1.4 q=26.0 size=       0KiB time=00:00:00.43 bitrate=   8.9kbits/s speed=0.0113x elapsed=0:00:38.36    \nframe=   53 fps=1.4 q=30.0 size=       0KiB time=00:00:00.44 bitrate=   8.7kbits/s speed=0.0113x elapsed=0:00:38.94    \nframe=   53 fps=1.3 q=30.0 size=       0KiB time=00:00:00.44 bitrate=   8.7kbits/s speed=0.0112x elapsed=0:00:39.50    \nframe=   54 fps=1.3 q=26.0 size=       0KiB time=00:00:00.45 bitrate=   8.6kbits/s speed=0.0112x elapsed=0:00:40.05    \nframe=   55 fps=1.4 q=30.0 size=       0KiB time=00:00:00.45 bitrate=   8.4kbits/s speed=0.0113x elapsed=0:00:40.63    \nframe=   55 fps=1.3 q=30.0 size=       0KiB time=00:00:00.45 bitrate=   8.4kbits/s speed=0.0111x elapsed=0:00:41.21    \nframe=   56 fps=1.3 q=27.0 size=       0KiB time=00:00:00.46 bitrate=   8.2kbits/s speed=0.0112x elapsed=0:00:41.78    \nframe=   57 fps=1.3 q=30.0 size=       0KiB time=00:00:00.46 bitrate=   8.2kbits/s speed=0.011x elapsed=0:00:42.37    \nframe=   57 fps=1.3 q=30.0 size=       0KiB time=00:00:00.47 bitrate=   8.1kbits/s speed=0.0111x elapsed=0:00:42.96    \nframe=   58 fps=1.3 q=28.0 size=       0KiB time=00:00:00.47 bitrate=   8.1kbits/s speed=0.0109x elapsed=0:00:43.54    \nframe=   58 fps=1.3 q=28.0 size=       0KiB time=00:00:00.48 bitrate=   8.0kbits/s speed=0.011x elapsed=0:00:44.12    \nframe=   59 fps=1.3 q=30.0 size=       0KiB time=00:00:00.49 bitrate=   7.8kbits/s speed=0.011x elapsed=0:00:44.70    \nframe=   59 fps=1.3 q=30.0 size=       0KiB time=00:00:00.49 bitrate=   7.8kbits/s speed=0.0109x elapsed=0:00:45.27    \nframe=   60 fps=1.3 q=28.0 size=       0KiB time=00:00:00.50 bitrate=   7.7kbits/s speed=0.0109x elapsed=0:00:45.82    \nframe=   60 fps=1.3 q=28.0 size=       0KiB time=00:00:00.50 bitrate=   7.7kbits/s speed=0.0108x elapsed=0:00:46.40    \nframe=   60 fps=1.3 q=28.0 size=       0KiB time=00:00:00.50 bitrate=   7.7kbits/s speed=0.0106x elapsed=0:00:46.97    \nframe=   61 fps=1.3 q=13.0 size=       0KiB time=00:00:00.50 bitrate=   7.6kbits/s speed=0.0107x elapsed=0:00:47.52    \nframe=   62 fps=1.3 q=35.0 size=       0KiB time=00:00:00.51 bitrate=   7.4kbits/s speed=0.0107x elapsed=0:00:48.07    \nframe=   62 fps=1.3 q=35.0 size=       0KiB time=00:00:00.51 bitrate=   7.4kbits/s speed=0.0106x elapsed=0:00:48.64    \nframe=   63 fps=1.3 q=25.0 size=       0KiB time=00:00:00.52 bitrate=   7.3kbits/s speed=0.0107x elapsed=0:00:49.19    \nframe=   64 fps=1.3 q=30.0 size=       0KiB time=00:00:00.53 bitrate=   7.2kbits/s speed=0.0107x elapsed=0:00:49.73    \nframe=   64 fps=1.3 q=30.0 size=       0KiB time=00:00:00.53 bitrate=   7.2kbits/s speed=0.0106x elapsed=0:00:50.29    \nframe=   65 fps=1.3 q=28.0 size=       0KiB time=00:00:00.54 bitrate=   7.1kbits/s speed=0.0107x elapsed=0:00:50.83    \nframe=   66 fps=1.3 q=32.0 size=       0KiB time=00:00:00.55 bitrate=   7.0kbits/s speed=0.0107x elapsed=0:00:51.39    \nframe=   67 fps=1.3 q=29.0 size=       0KiB time=00:00:00.55 bitrate=   6.9kbits/s speed=0.0107x elapsed=0:00:51.95    \nframe=   68 fps=1.3 q=32.0 size=       0KiB time=00:00:00.56 bitrate=   6.8kbits/s speed=0.0108x elapsed=0:00:52.50    \nframe=   68 fps=1.3 q=32.0 size=       0KiB time=00:00:00.56 bitrate=   6.8kbits/s speed=0.0107x elapsed=0:00:53.06    \nframe=   69 fps=1.3 q=30.0 size=       0KiB time=00:00:00.57 bitrate=   6.7kbits/s speed=0.0107x elapsed=0:00:53.63    \nframe=   70 fps=1.3 q=33.0 size=       0KiB time=00:00:00.58 bitrate=   6.6kbits/s speed=0.0108x elapsed=0:00:54.19    \nframe=   70 fps=1.3 q=33.0 size=       0KiB time=00:00:00.58 bitrate=   6.6kbits/s speed=0.0107x elapsed=0:00:54.74    \nframe=   71 fps=1.3 q=30.0 size=       0KiB time=00:00:00.59 bitrate=   6.5kbits/s speed=0.0107x elapsed=0:00:55.31    \nframe=   72 fps=1.3 q=33.0 size=       0KiB time=00:00:00.60 bitrate=   6.4kbits/s speed=0.0107x elapsed=0:00:55.88    \nframe=   72 fps=1.3 q=33.0 size=       0KiB time=00:00:00.60 bitrate=   6.4kbits/s speed=0.0106x elapsed=0:00:56.45    \nframe=   73 fps=1.3 q=31.0 size=       0KiB time=00:00:00.60 bitrate=   6.3kbits/s speed=0.0107x elapsed=0:00:57.02    \nframe=   74 fps=1.3 q=33.0 size=       0KiB time=00:00:00.61 bitrate=   6.2kbits/s speed=0.0107x elapsed=0:00:57.57    \nframe=   75 fps=1.3 q=31.0 size=       0KiB time=00:00:00.62 bitrate=   6.2kbits/s speed=0.0107x elapsed=0:00:58.38    \nframe=   77 fps=1.3 q=31.0 size=       0KiB time=00:00:00.63 bitrate=   6.1kbits/s speed=0.0106x elapsed=0:00:59.53    \nframe=   78 fps=1.3 q=25.0 size=       0KiB time=00:00:00.65 bitrate=   5.9kbits/s speed=0.0108x elapsed=0:01:00.38    \nframe=   80 fps=1.3 q=27.0 size=       0KiB time=00:00:00.65 bitrate=   5.8kbits/s speed=0.0108x elapsed=0:01:01.18    \nframe=   81 fps=1.3 q=31.0 size=       0KiB time=00:00:00.67 bitrate=   5.7kbits/s speed=0.0109x elapsed=0:01:02.08    \nframe=   83 fps=1.3 q=31.0 size=       0KiB time=00:00:00.69 bitrate=   5.6kbits/s speed=0.011x elapsed=0:01:03.01    \nframe=   84 fps=1.3 q=29.0 size=       0KiB time=00:00:00.70 bitrate=   5.5kbits/s speed=0.011x elapsed=0:01:03.53    \nframe=   85 fps=1.3 q=31.0 size=       0KiB time=00:00:00.70 bitrate=   5.4kbits/s speed=0.0111x elapsed=0:01:04.04    \nframe=   86 fps=1.3 q=30.0 size=       0KiB time=00:00:00.71 bitrate=   5.4kbits/s speed=0.0111x elapsed=0:01:04.55    \nframe=   88 fps=1.4 q=30.0 size=       0KiB time=00:00:00.73 bitrate=   5.2kbits/s speed=0.0113x elapsed=0:01:05.08    \nframe=   89 fps=1.4 q=31.0 size=       0KiB time=00:00:00.74 bitrate=   5.2kbits/s speed=0.0113x elapsed=0:01:05.60    \nframe=   90 fps=1.4 q=30.0 size=       0KiB time=00:00:00.75 bitrate=   5.1kbits/s speed=0.0113x elapsed=0:01:06.11    \nframe=   90 fps=1.4 q=30.0 size=       0KiB time=00:00:00.75 bitrate=   5.1kbits/s speed=0.0113x elapsed=0:01:06.62    \nframe=   90 fps=1.3 q=30.0 size=       0KiB time=00:00:00.75 bitrate=   5.1kbits/s speed=0.0112x elapsed=0:01:07.15    \nframe=   92 fps=1.4 q=30.0 size=       0KiB time=00:00:00.76 bitrate=   5.0kbits/s speed=0.0113x elapsed=0:01:07.66    \nframe=   93 fps=1.4 q=25.0 size=       0KiB time=00:00:00.77 bitrate=   5.0kbits/s speed=0.0114x elapsed=0:01:08.19    \nframe=   94 fps=1.4 q=28.0 size=       0KiB time=00:00:00.78 bitrate=   4.9kbits/s speed=0.0114x elapsed=0:01:08.70    \nframe=   95 fps=1.4 q=27.0 size=       0KiB time=00:00:00.79 bitrate=   4.9kbits/s speed=0.0114x elapsed=0:01:09.21    \nframe=   96 fps=1.4 q=29.0 size=       0KiB time=00:00:00.80 bitrate=   4.8kbits/s speed=0.0115x elapsed=0:01:09.73    \nframe=   97 fps=1.4 q=28.0 size=       0KiB time=00:00:00.80 bitrate=   4.8kbits/s speed=0.0115x elapsed=0:01:10.25    \nframe=   98 fps=1.4 q=30.0 size=       0KiB time=00:00:00.81 bitrate=   4.7kbits/s speed=0.0115x elapsed=0:01:10.76    \nframe=  100 fps=1.4 q=30.0 size=       0KiB time=00:00:00.83 bitrate=   4.6kbits/s speed=0.0117x elapsed=0:01:11.28    \nframe=  101 fps=1.4 q=29.0 size=       0KiB time=00:00:00.84 bitrate=   4.6kbits/s speed=0.0117x elapsed=0:01:11.79    \nframe=  103 fps=1.4 q=29.0 size=       0KiB time=00:00:00.85 bitrate=   4.5kbits/s speed=0.0119x elapsed=0:01:12.32    \nframe=  104 fps=1.4 q=30.0 size=       0KiB time=00:00:00.86 bitrate=   4.4kbits/s speed=0.0119x elapsed=0:01:12.83    \nframe=  105 fps=1.4 q=29.0 size=       0KiB time=00:00:00.87 bitrate=   4.4kbits/s speed=0.0119x elapsed=0:01:13.34    \nframe=  105 fps=1.4 q=29.0 size=       0KiB time=00:00:00.87 bitrate=   4.4kbits/s speed=0.0118x elapsed=0:01:13.85    \nframe=  107 fps=1.4 q=33.0 size=       0KiB time=00:00:00.89 bitrate=   4.3kbits/s speed=0.012x elapsed=0:01:14.37    \nframe=  109 fps=1.5 q=30.0 size=       0KiB time=00:00:00.90 bitrate=   4.2kbits/s speed=0.0121x elapsed=0:01:14.89    \nframe=  110 fps=1.5 q=29.0 size=       0KiB time=00:00:00.91 bitrate=   4.2kbits/s speed=0.0122x elapsed=0:01:15.40    \nframe=  111 fps=1.5 q=31.0 size=       0KiB time=00:00:00.92 bitrate=   4.2kbits/s speed=0.0122x elapsed=0:01:15.92    \nframe=  112 fps=1.5 q=30.0 size=       0KiB time=00:00:00.93 bitrate=   4.1kbits/s speed=0.0122x elapsed=0:01:16.44    \nframe=  113 fps=1.5 q=32.0 size=       0KiB time=00:00:00.94 bitrate=   4.1kbits/s speed=0.0122x elapsed=0:01:16.95    \nframe=  115 fps=1.5 q=32.0 size=       0KiB time=00:00:00.95 bitrate=   4.0kbits/s speed=0.0124x elapsed=0:01:17.46    \nframe=  116 fps=1.5 q=31.0 size=       0KiB time=00:00:00.96 bitrate=   4.0kbits/s speed=0.0124x elapsed=0:01:17.99    \nframe=  116 fps=1.5 q=31.0 size=       0KiB time=00:00:00.96 bitrate=   4.0kbits/s speed=0.0123x elapsed=0:01:18.50    \nframe=  118 fps=1.5 q=31.0 size=       0KiB time=00:00:00.98 bitrate=   3.9kbits/s speed=0.0124x elapsed=0:01:19.01    \nframe=  119 fps=1.5 q=25.0 size=       0KiB time=00:00:00.99 bitrate=   3.9kbits/s speed=0.0125x elapsed=0:01:19.54    \nframe=  120 fps=1.5 q=30.0 size=       0KiB time=00:00:01.00 bitrate=   3.8kbits/s speed=0.0125x elapsed=0:01:20.04    \nframe=  121 fps=1.5 q=27.0 size=       0KiB time=00:00:01.00 bitrate=   3.8kbits/s speed=0.0125x elapsed=0:01:20.56    \nframe=  122 fps=1.5 q=31.0 size=       0KiB time=00:00:01.01 bitrate=   3.8kbits/s speed=0.0125x elapsed=0:01:21.07    \nframe=  123 fps=1.5 q=28.0 size=       0KiB time=00:00:01.02 bitrate=   3.8kbits/s speed=0.0126x elapsed=0:01:21.59    \nframe=  125 fps=1.5 q=29.0 size=       0KiB time=00:00:01.04 bitrate=   3.7kbits/s speed=0.0127x elapsed=0:01:22.11    \nframe=  126 fps=1.5 q=31.0 size=       0KiB time=00:00:01.05 bitrate=   3.7kbits/s speed=0.0127x elapsed=0:01:22.63    \nframe=  128 fps=1.5 q=31.0 size=       0KiB time=00:00:01.06 bitrate=   3.6kbits/s speed=0.0128x elapsed=0:01:23.13    \nframe=  128 fps=1.5 q=31.0 size=       0KiB time=00:00:01.06 bitrate=   3.6kbits/s speed=0.0127x elapsed=0:01:23.66    \nframe=  130 fps=1.5 q=29.0 size=    1536KiB time=00:00:01.08 bitrate=11615.0kbits/s speed=0.0129x elapsed=0:01:24.16    \nframe=  132 fps=1.6 q=28.0 size=    1536KiB time=00:00:01.10 bitrate=11439.0kbits/s speed=0.013x elapsed=0:01:24.68    \nframe=  134 fps=1.6 q=29.0 size=    1536KiB time=00:00:01.11 bitrate=11268.3kbits/s speed=0.0131x elapsed=0:01:25.21    \nframe=  136 fps=1.6 q=30.0 size=    1536KiB time=00:00:01.13 bitrate=11102.6kbits/s speed=0.0132x elapsed=0:01:25.71    \nframe=  137 fps=1.6 q=29.0 size=    1536KiB time=00:00:01.14 bitrate=11021.5kbits/s speed=0.0132x elapsed=0:01:26.23    \nframe=  139 fps=1.6 q=29.0 size=    1536KiB time=00:00:01.15 bitrate=10862.9kbits/s speed=0.0134x elapsed=0:01:26.75    \nframe=  140 fps=1.6 q=31.0 size=    1536KiB time=00:00:01.16 bitrate=10785.4kbits/s speed=0.0134x elapsed=0:01:27.26    \nframe=  142 fps=1.6 q=31.0 size=    1536KiB time=00:00:01.18 bitrate=10633.4kbits/s speed=0.0135x elapsed=0:01:27.78    \nframe=  143 fps=1.6 q=30.0 size=    1536KiB time=00:00:01.19 bitrate=10559.1kbits/s speed=0.0135x elapsed=0:01:28.29    \nframe=  143 fps=1.6 q=30.0 size=    1536KiB time=00:00:01.19 bitrate=10559.1kbits/s speed=0.0134x elapsed=0:01:28.81    \nframe=  144 fps=1.6 q=11.0 size=    1536KiB time=00:00:01.20 bitrate=10485.8kbits/s speed=0.0134x elapsed=0:01:29.32    \nframe=  145 fps=1.6 q=34.0 size=    1536KiB time=00:00:01.20 bitrate=10413.4kbits/s speed=0.0134x elapsed=0:01:29.84    \nframe=  148 fps=1.6 q=29.0 size=    1536KiB time=00:00:01.23 bitrate=10202.4kbits/s speed=0.0136x elapsed=0:01:30.35    \nframe=  149 fps=1.6 q=31.0 size=    1536KiB time=00:00:01.24 bitrate=10133.9kbits/s speed=0.0137x elapsed=0:01:30.87    \nframe=  151 fps=1.7 q=32.0 size=    1536KiB time=00:00:01.25 bitrate=9999.7kbits/s speed=0.0138x elapsed=0:01:31.39    \nframe=  153 fps=1.7 q=32.0 size=    1536KiB time=00:00:01.27 bitrate=9869.0kbits/s speed=0.0139x elapsed=0:01:31.91    \nframe=  154 fps=1.7 q=32.0 size=    1536KiB time=00:00:01.28 bitrate=9804.9kbits/s speed=0.0139x elapsed=0:01:32.42    \nframe=  155 fps=1.7 q=32.0 size=    1536KiB time=00:00:01.29 bitrate=9741.6kbits/s speed=0.0139x elapsed=0:01:32.93    \nframe=  156 fps=1.7 q=32.0 size=    1536KiB time=00:00:01.30 bitrate=9679.2kbits/s speed=0.0139x elapsed=0:01:33.45    \nframe=  157 fps=1.7 q=32.0 size=    1536KiB time=00:00:01.30 bitrate=9617.5kbits/s speed=0.0139x elapsed=0:01:33.97    \nframe=  158 fps=1.7 q=32.0 size=    1536KiB time=00:00:01.31 bitrate=9556.6kbits/s speed=0.0139x elapsed=0:01:34.49    \nframe=  158 fps=1.7 q=32.0 size=    1536KiB time=00:00:01.31 bitrate=9556.6kbits/s speed=0.0139x elapsed=0:01:34.99    \nframe=  160 fps=1.7 q=32.0 size=    1536KiB time=00:00:01.33 bitrate=9437.2kbits/s speed=0.014x elapsed=0:01:35.52    \nframe=  161 fps=1.7 q=26.0 size=    1536KiB time=00:00:01.34 bitrate=9378.6kbits/s speed=0.014x elapsed=0:01:36.03    \nframe=  162 fps=1.7 q=29.0 size=    1536KiB time=00:00:01.35 bitrate=9320.7kbits/s speed=0.014x elapsed=0:01:36.55    \nframe=  163 fps=1.7 q=28.0 size=    1536KiB time=00:00:01.35 bitrate=9263.5kbits/s speed=0.014x elapsed=0:01:37.06    \nframe=  165 fps=1.7 q=30.0 size=    1536KiB time=00:00:01.37 bitrate=9151.2kbits/s speed=0.0141x elapsed=0:01:37.58    \nframe=  167 fps=1.7 q=31.0 size=    1536KiB time=00:00:01.39 bitrate=9041.6kbits/s speed=0.0142x elapsed=0:01:38.10    \nframe=  169 fps=1.7 q=31.0 size=    1536KiB time=00:00:01.40 bitrate=8934.6kbits/s speed=0.0143x elapsed=0:01:38.61    \nframe=  170 fps=1.7 q=32.0 size=    1536KiB time=00:00:01.41 bitrate=8882.1kbits/s speed=0.0143x elapsed=0:01:39.12    \nframe=  172 fps=1.7 q=32.0 size=    1536KiB time=00:00:01.43 bitrate=8778.8kbits/s speed=0.0144x elapsed=0:01:39.65    \nframe=  173 fps=1.7 q=31.0 size=    1536KiB time=00:00:01.44 bitrate=8728.0kbits/s speed=0.0144x elapsed=0:01:40.16    \nframe=  173 fps=1.7 q=31.0 size=    1536KiB time=00:00:01.44 bitrate=8728.0kbits/s speed=0.0143x elapsed=0:01:40.67    \nframe=  175 fps=1.7 q=28.0 size=    1536KiB time=00:00:01.45 bitrate=8628.3kbits/s speed=0.0144x elapsed=0:01:41.19    \nframe=  176 fps=1.7 q=25.0 size=    1536KiB time=00:00:01.46 bitrate=8579.3kbits/s speed=0.0144x elapsed=0:01:41.70    \nframe=  177 fps=1.7 q=28.0 size=    1536KiB time=00:00:01.47 bitrate=8530.8kbits/s speed=0.0144x elapsed=0:01:42.21    \nframe=  178 fps=1.7 q=27.0 size=    1536KiB time=00:00:01.48 bitrate=8482.9kbits/s speed=0.0144x elapsed=0:01:42.74    \nframe=  180 fps=1.7 q=28.0 size=    1536KiB time=00:00:01.50 bitrate=8388.6kbits/s speed=0.0145x elapsed=0:01:43.25    \nframe=  181 fps=1.7 q=29.0 size=    1536KiB time=00:00:01.50 bitrate=8342.3kbits/s speed=0.0145x elapsed=0:01:43.76    \nframe=  181 fps=1.7 q=29.0 size=    1536KiB time=00:00:01.50 bitrate=8342.3kbits/s speed=0.0145x elapsed=0:01:44.28    \nframe=  182 fps=1.7 q=28.0 size=    1536KiB time=00:00:01.51 bitrate=8296.4kbits/s speed=0.0145x elapsed=0:01:44.79    \nframe=  183 fps=1.7 q=30.0 size=    1536KiB time=00:00:01.52 bitrate=8251.1kbits/s speed=0.0145x elapsed=0:01:45.31    \nframe=  184 fps=1.7 q=29.0 size=    1536KiB time=00:00:01.53 bitrate=8206.2kbits/s speed=0.0145x elapsed=0:01:45.83    \nframe=  184 fps=1.7 q=29.0 size=    1536KiB time=00:00:01.53 bitrate=8206.2kbits/s speed=0.0144x elapsed=0:01:46.34    \nframe=  185 fps=1.7 q=30.0 size=    1536KiB time=00:00:01.54 bitrate=8161.9kbits/s speed=0.0144x elapsed=0:01:46.85    \nframe=  186 fps=1.7 q=29.0 size=    1536KiB time=00:00:01.55 bitrate=8118.0kbits/s speed=0.0144x elapsed=0:01:47.37    \nframe=  186 fps=1.7 q=29.0 size=    1536KiB time=00:00:01.55 bitrate=8118.0kbits/s speed=0.0144x elapsed=0:01:47.88    \nframe=  187 fps=1.7 q=30.0 size=    1536KiB time=00:00:01.55 bitrate=8074.6kbits/s speed=0.0144x elapsed=0:01:48.40    \nframe=  188 fps=1.7 q=29.0 size=    1536KiB time=00:00:01.56 bitrate=8031.6kbits/s speed=0.0144x elapsed=0:01:48.92    \nframe=  188 fps=1.7 q=29.0 size=    1536KiB time=00:00:01.56 bitrate=8031.6kbits/s speed=0.0143x elapsed=0:01:49.43    \nframe=  188 fps=1.7 q=29.0 size=    1536KiB time=00:00:01.56 bitrate=8031.6kbits/s speed=0.0142x elapsed=0:01:49.95    \nframe=  189 fps=1.7 q=15.0 size=    1536KiB time=00:00:01.57 bitrate=7989.2kbits/s speed=0.0143x elapsed=0:01:50.46    \nframe=  190 fps=1.7 q=30.0 size=    1536KiB time=00:00:01.58 bitrate=7947.1kbits/s speed=0.0143x elapsed=0:01:50.98    \nframe=  191 fps=1.7 q=25.0 size=    1536KiB time=00:00:01.59 bitrate=7905.5kbits/s speed=0.0143x elapsed=0:01:51.50    \nframe=  192 fps=1.7 q=29.0 size=    1536KiB time=00:00:01.60 bitrate=7864.3kbits/s speed=0.0143x elapsed=0:01:52.03    \nframe=  193 fps=1.7 q=27.0 size=    1536KiB time=00:00:01.60 bitrate=7823.6kbits/s speed=0.0143x elapsed=0:01:52.54    \nframe=  194 fps=1.7 q=30.0 size=    1536KiB time=00:00:01.61 bitrate=7783.2kbits/s speed=0.0143x elapsed=0:01:53.05    \nframe=  194 fps=1.7 q=30.0 size=    1536KiB time=00:00:01.61 bitrate=7783.2kbits/s speed=0.0142x elapsed=0:01:53.58    \nframe=  195 fps=1.7 q=28.0 size=    1536KiB time=00:00:01.62 bitrate=7743.3kbits/s speed=0.0142x elapsed=0:01:54.09    \nframe=  196 fps=1.7 q=30.0 size=    1536KiB time=00:00:01.63 bitrate=7703.8kbits/s speed=0.0143x elapsed=0:01:54.60    \nframe=  197 fps=1.7 q=29.0 size=    1536KiB time=00:00:01.64 bitrate=7664.7kbits/s speed=0.0143x elapsed=0:01:55.13    \nframe=  198 fps=1.7 q=30.0 size=    1536KiB time=00:00:01.65 bitrate=7626.0kbits/s speed=0.0143x elapsed=0:01:55.66    \nframe=  199 fps=1.7 q=30.0 size=    1536KiB time=00:00:01.65 bitrate=7587.7kbits/s speed=0.0143x elapsed=0:01:56.18    \nframe=  199 fps=1.7 q=30.0 size=    1536KiB time=00:00:01.65 bitrate=7587.7kbits/s speed=0.0142x elapsed=0:01:56.70    \nframe=  200 fps=1.7 q=30.0 size=    1536KiB time=00:00:01.66 bitrate=7549.7kbits/s speed=0.0142x elapsed=0:01:57.23    \nframe=  200 fps=1.7 q=30.0 size=    1536KiB time=00:00:01.66 bitrate=7549.7kbits/s speed=0.0142x elapsed=0:01:57.76    \nframe=  201 fps=1.7 q=30.0 size=    1536KiB time=00:00:01.67 bitrate=7512.2kbits/s speed=0.0142x elapsed=0:01:58.29    \nframe=  202 fps=1.7 q=31.0 size=    1536KiB time=00:00:01.68 bitrate=7475.0kbits/s speed=0.0142x elapsed=0:01:58.82    \nframe=  203 fps=1.7 q=30.0 size=    1536KiB time=00:00:01.69 bitrate=7438.2kbits/s speed=0.0142x elapsed=0:01:59.34    \nframe=  203 fps=1.7 q=30.0 size=    1536KiB time=00:00:01.69 bitrate=7438.2kbits/s speed=0.0141x elapsed=0:01:59.87    \nframe=  203 fps=1.7 q=30.0 size=    1536KiB time=00:00:01.69 bitrate=7438.2kbits/s speed=0.0141x elapsed=0:02:00.38    \nframe=  204 fps=1.7 q=17.0 size=    1536KiB time=00:00:01.70 bitrate=7401.7kbits/s speed=0.0141x elapsed=0:02:00.90    \nframe=  205 fps=1.7 q=30.0 size=    1536KiB time=00:00:01.70 bitrate=7365.6kbits/s speed=0.0141x elapsed=0:02:01.42    \nframe=  206 fps=1.7 q=25.0 size=    1536KiB time=00:00:01.71 bitrate=7329.9kbits/s speed=0.0141x elapsed=0:02:01.95    \nframe=  207 fps=1.7 q=28.0 size=    1536KiB time=00:00:01.72 bitrate=7294.4kbits/s speed=0.0141x elapsed=0:02:02.47    \nframe=  208 fps=1.7 q=27.0 size=    1536KiB time=00:00:01.73 bitrate=7259.4kbits/s speed=0.0141x elapsed=0:02:02.98    \nframe=  209 fps=1.7 q=29.0 size=    1536KiB time=00:00:01.74 bitrate=7224.6kbits/s speed=0.0141x elapsed=0:02:03.50    \nframe=  210 fps=1.7 q=28.0 size=    1536KiB time=00:00:01.75 bitrate=7190.2kbits/s speed=0.0141x elapsed=0:02:04.01    \nframe=  211 fps=1.7 q=29.0 size=    1536KiB time=00:00:01.75 bitrate=7156.2kbits/s speed=0.0141x elapsed=0:02:04.53    \nframe=  212 fps=1.7 q=29.0 size=    1536KiB time=00:00:01.76 bitrate=7122.4kbits/s speed=0.0141x elapsed=0:02:05.06    \nframe=  213 fps=1.7 q=29.0 size=    1536KiB time=00:00:01.77 bitrate=7089.0kbits/s speed=0.0141x elapsed=0:02:05.59    \nframe=  213 fps=1.7 q=29.0 size=    1536KiB time=00:00:01.77 bitrate=7089.0kbits/s speed=0.0141x elapsed=0:02:06.11    \nframe=  214 fps=1.7 q=29.0 size=    1536KiB time=00:00:01.78 bitrate=7055.8kbits/s speed=0.0141x elapsed=0:02:06.64    \nframe=  215 fps=1.7 q=29.0 size=    1536KiB time=00:00:01.79 bitrate=7023.0kbits/s speed=0.0141x elapsed=0:02:07.16    \nframe=  216 fps=1.7 q=29.0 size=    1536KiB time=00:00:01.80 bitrate=6990.5kbits/s speed=0.0141x elapsed=0:02:07.71    \nframe=  216 fps=1.7 q=29.0 size=    1536KiB time=00:00:01.80 bitrate=6990.5kbits/s speed=0.014x elapsed=0:02:08.24    \nframe=  217 fps=1.7 q=29.0 size=    1536KiB time=00:00:01.80 bitrate=6958.3kbits/s speed=0.014x elapsed=0:02:08.78    \nframe=  218 fps=1.7 q=29.0 size=    1536KiB time=00:00:01.81 bitrate=6926.4kbits/s speed=0.014x elapsed=0:02:09.31    \nframe=  218 fps=1.7 q=29.0 size=    1536KiB time=00:00:01.81 bitrate=6926.4kbits/s speed=0.014x elapsed=0:02:09.85    \nframe=  218 fps=1.7 q=29.0 size=    1536KiB time=00:00:01.81 bitrate=6926.4kbits/s speed=0.0139x elapsed=0:02:10.37    \nframe=  219 fps=1.7 q=17.0 size=    1536KiB time=00:00:01.82 bitrate=6894.7kbits/s speed=0.0139x elapsed=0:02:10.89    \nframe=  220 fps=1.7 q=29.0 size=    1536KiB time=00:00:01.83 bitrate=6863.4kbits/s speed=0.014x elapsed=0:02:11.41    \nframe=  221 fps=1.7 q=25.0 size=    1536KiB time=00:00:01.84 bitrate=6832.3kbits/s speed=0.014x elapsed=0:02:11.95    \nframe=  222 fps=1.7 q=28.0 size=    1536KiB time=00:00:01.85 bitrate=6801.6kbits/s speed=0.014x elapsed=0:02:12.46    \nframe=  223 fps=1.7 q=27.0 size=    1536KiB time=00:00:01.85 bitrate=6771.1kbits/s speed=0.014x elapsed=0:02:13.00    \nframe=  224 fps=1.7 q=29.0 size=    1536KiB time=00:00:01.86 bitrate=6740.8kbits/s speed=0.014x elapsed=0:02:13.51    \nframe=  225 fps=1.7 q=28.0 size=    1536KiB time=00:00:01.87 bitrate=6710.9kbits/s speed=0.014x elapsed=0:02:14.03    \nframe=  226 fps=1.7 q=29.0 size=    1536KiB time=00:00:01.88 bitrate=6681.2kbits/s speed=0.014x elapsed=0:02:14.55    \nframe=  227 fps=1.7 q=28.0 size=    1536KiB time=00:00:01.89 bitrate=6651.8kbits/s speed=0.014x elapsed=0:02:15.09    \nframe=  228 fps=1.7 q=29.0 size=    1536KiB time=00:00:01.90 bitrate=6622.6kbits/s speed=0.014x elapsed=0:02:15.62    \nframe=  229 fps=1.7 q=29.0 size=    1536KiB time=00:00:01.90 bitrate=6622.6kbits/s speed=0.014x elapsed=0:02:16.15    \nframe=  229 fps=1.7 q=29.0 size=    1536KiB time=00:00:01.90 bitrate=6593.7kbits/s speed=0.014x elapsed=0:02:16.69    \nframe=  230 fps=1.7 q=29.0 size=    1536KiB time=00:00:01.91 bitrate=6565.0kbits/s speed=0.014x elapsed=0:02:17.21    \nframe=  231 fps=1.7 q=29.0 size=    1536KiB time=00:00:01.92 bitrate=6536.6kbits/s speed=0.014x elapsed=0:02:17.74    \nframe=  231 fps=1.7 q=29.0 size=    1536KiB time=00:00:01.92 bitrate=6536.6kbits/s speed=0.0139x elapsed=0:02:18.26    \nframe=  232 fps=1.7 q=30.0 size=    1536KiB time=00:00:01.93 bitrate=6508.4kbits/s speed=0.0139x elapsed=0:02:18.79    \nframe=  233 fps=1.7 q=29.0 size=    1536KiB time=00:00:01.94 bitrate=6480.5kbits/s speed=0.0139x elapsed=0:02:19.30    \nframe=  233 fps=1.7 q=29.0 size=    1536KiB time=00:00:01.94 bitrate=6480.5kbits/s speed=0.0139x elapsed=0:02:19.84    \nframe=  233 fps=1.7 q=29.0 size=    1536KiB time=00:00:01.94 bitrate=6480.5kbits/s speed=0.0138x elapsed=0:02:20.35    \nframe=  234 fps=1.7 q=19.0 size=    1536KiB time=00:00:01.95 bitrate=6452.8kbits/s speed=0.0138x elapsed=0:02:20.88    \nframe=  235 fps=1.7 q=30.0 size=    1536KiB time=00:00:01.95 bitrate=6425.3kbits/s speed=0.0138x elapsed=0:02:21.41    \nframe=  236 fps=1.7 q=26.0 size=    1536KiB time=00:00:01.96 bitrate=6398.1kbits/s speed=0.0139x elapsed=0:02:21.93    \nframe=  237 fps=1.7 q=29.0 size=    1536KiB time=00:00:01.97 bitrate=6371.1kbits/s speed=0.0139x elapsed=0:02:22.45    \nframe=  238 fps=1.7 q=28.0 size=    1536KiB time=00:00:01.98 bitrate=6344.3kbits/s speed=0.0139x elapsed=0:02:22.96    \nframe=  239 fps=1.7 q=29.0 size=    1536KiB time=00:00:01.99 bitrate=6317.8kbits/s speed=0.0139x elapsed=0:02:23.48    \nframe=  240 fps=1.7 q=29.0 size=    1536KiB time=00:00:02.00 bitrate=6291.5kbits/s speed=0.0139x elapsed=0:02:23.99    \nframe=  241 fps=1.7 q=30.0 size=    1536KiB time=00:00:02.00 bitrate=6265.4kbits/s speed=0.0139x elapsed=0:02:24.51    \nframe=  242 fps=1.7 q=29.0 size=    1536KiB time=00:00:02.01 bitrate=6239.5kbits/s speed=0.0139x elapsed=0:02:25.03    \nframe=  243 fps=1.7 q=30.0 size=    1536KiB time=00:00:02.02 bitrate=6213.8kbits/s speed=0.0139x elapsed=0:02:25.57    \nframe=  243 fps=1.7 q=30.0 size=    1536KiB time=00:00:02.02 bitrate=6213.8kbits/s speed=0.0139x elapsed=0:02:26.08    \nframe=  244 fps=1.7 q=29.0 size=    1536KiB time=00:00:02.03 bitrate=6188.3kbits/s speed=0.0139x elapsed=0:02:26.61    \nframe=  244 fps=1.7 q=29.0 size=    1536KiB time=00:00:02.03 bitrate=6188.3kbits/s speed=0.0138x elapsed=0:02:27.14    \nframe=  245 fps=1.7 q=19.0 size=    1536KiB time=00:00:02.04 bitrate=6163.1kbits/s speed=0.0138x elapsed=0:02:27.67    \nframe=  246 fps=1.7 q=33.0 size=    1536KiB time=00:00:02.05 bitrate=6138.0kbits/s speed=0.0138x elapsed=0:02:28.18    \nframe=  247 fps=1.7 q=27.0 size=    1536KiB time=00:00:02.05 bitrate=6113.2kbits/s speed=0.0138x elapsed=0:02:28.69    \nframe=  248 fps=1.7 q=30.0 size=    1536KiB time=00:00:02.06 bitrate=6088.5kbits/s speed=0.0139x elapsed=0:02:29.21    \nframe=  249 fps=1.7 q=30.0 size=    1536KiB time=00:00:02.07 bitrate=6064.1kbits/s speed=0.0139x elapsed=0:02:29.73    \nframe=  250 fps=1.7 q=31.0 size=    1536KiB time=00:00:02.08 bitrate=6039.8kbits/s speed=0.0139x elapsed=0:02:30.25    \nframe=  250 fps=1.7 q=31.0 size=    1536KiB time=00:00:02.08 bitrate=6039.8kbits/s speed=0.0138x elapsed=0:02:30.76    \nframe=  251 fps=1.7 q=21.0 size=    1536KiB time=00:00:02.09 bitrate=6015.7kbits/s speed=0.0138x elapsed=0:02:31.28    \nframe=  252 fps=1.7 q=31.0 size=    1536KiB time=00:00:02.10 bitrate=5991.9kbits/s speed=0.0138x elapsed=0:02:31.82    \nframe=  253 fps=1.7 q=27.0 size=    1536KiB time=00:00:02.10 bitrate=5968.2kbits/s speed=0.0138x elapsed=0:02:32.34    \nframe=  254 fps=1.7 q=31.0 size=    1536KiB time=00:00:02.11 bitrate=5944.7kbits/s speed=0.0138x elapsed=0:02:32.85    \nframe=  255 fps=1.7 q=30.0 size=    1536KiB time=00:00:02.12 bitrate=5921.4kbits/s speed=0.0139x elapsed=0:02:33.37    \nframe=  256 fps=1.7 q=31.0 size=    1536KiB time=00:00:02.13 bitrate=5898.2kbits/s speed=0.0139x elapsed=0:02:33.89    \nframe=  256 fps=1.7 q=31.0 size=    1536KiB time=00:00:02.13 bitrate=5898.2kbits/s speed=0.0138x elapsed=0:02:34.41    \nframe=  257 fps=1.7 q=17.0 size=    1536KiB time=00:00:02.14 bitrate=5875.3kbits/s speed=0.0138x elapsed=0:02:34.94    \nframe=  258 fps=1.7 q=30.0 size=    3072KiB time=00:00:02.15 bitrate=11705.0kbits/s speed=0.0138x elapsed=0:02:35.47    \nframe=  259 fps=1.7 q=26.0 size=    3072KiB time=00:00:02.15 bitrate=11659.8kbits/s speed=0.0138x elapsed=0:02:35.98    \nframe=  260 fps=1.7 q=29.0 size=    3072KiB time=00:00:02.16 bitrate=11615.0kbits/s speed=0.0138x elapsed=0:02:36.51    \nframe=  261 fps=1.7 q=29.0 size=    3072KiB time=00:00:02.17 bitrate=11570.5kbits/s speed=0.0139x elapsed=0:02:37.03    \nframe=  262 fps=1.7 q=30.0 size=    3072KiB time=00:00:02.18 bitrate=11526.3kbits/s speed=0.0139x elapsed=0:02:37.55    \nframe=  263 fps=1.7 q=30.0 size=    3072KiB time=00:00:02.19 bitrate=11482.5kbits/s speed=0.0139x elapsed=0:02:38.07    \nframe=  263 fps=1.7 q=30.0 size=    3072KiB time=00:00:02.19 bitrate=11482.5kbits/s speed=0.0138x elapsed=0:02:38.59    \nframe=  264 fps=1.7 q=20.0 size=    3072KiB time=00:00:02.20 bitrate=11439.0kbits/s speed=0.0138x elapsed=0:02:39.10    \nframe=  265 fps=1.7 q=31.0 size=    3072KiB time=00:00:02.20 bitrate=11395.8kbits/s speed=0.0138x elapsed=0:02:39.63    \nframe=  266 fps=1.7 q=27.0 size=    3072KiB time=00:00:02.21 bitrate=11353.0kbits/s speed=0.0138x elapsed=0:02:40.16    \nframe=  267 fps=1.7 q=30.0 size=    3072KiB time=00:00:02.22 bitrate=11310.5kbits/s speed=0.0138x elapsed=0:02:40.66    \nframe=  267 fps=1.7 q=30.0 size=    3072KiB time=00:00:02.22 bitrate=11310.5kbits/s speed=0.0138x elapsed=0:02:41.19    \nframe=  269 fps=1.7 q=31.0 size=    3072KiB time=00:00:02.23 bitrate=11268.3kbits/s speed=0.0138x elapsed=0:02:41.69    \nframe=  269 fps=1.7 q=31.0 size=    3072KiB time=00:00:02.24 bitrate=11226.4kbits/s speed=0.0138x elapsed=0:02:42.21    \nframe=  270 fps=1.7 q=30.0 size=    3072KiB time=00:00:02.25 bitrate=11184.8kbits/s speed=0.0138x elapsed=0:02:42.73    \nframe=  270 fps=1.7 q=30.0 size=    3072KiB time=00:00:02.25 bitrate=11184.8kbits/s speed=0.0138x elapsed=0:02:43.24    \nframe=  272 fps=1.7 q=31.0 size=    3072KiB time=00:00:02.26 bitrate=11102.6kbits/s speed=0.0138x elapsed=0:02:43.76    \nframe=  272 fps=1.7 q=31.0 size=    3072KiB time=00:00:02.26 bitrate=11102.6kbits/s speed=0.0138x elapsed=0:02:44.28    \nframe=  273 fps=1.7 q=27.0 size=    3072KiB time=00:00:02.27 bitrate=11061.9kbits/s speed=0.0138x elapsed=0:02:44.79    \nframe=  274 fps=1.7 q=30.0 size=    3072KiB time=00:00:02.28 bitrate=11021.5kbits/s speed=0.0138x elapsed=0:02:45.31    \nframe=  275 fps=1.7 q=29.0 size=    3072KiB time=00:00:02.29 bitrate=10981.4kbits/s speed=0.0138x elapsed=0:02:45.85    \nframe=  276 fps=1.7 q=31.0 size=    3072KiB time=00:00:02.30 bitrate=10941.7kbits/s speed=0.0138x elapsed=0:02:46.37    \nframe=  277 fps=1.7 q=30.0 size=    3072KiB time=00:00:02.30 bitrate=10902.2kbits/s speed=0.0138x elapsed=0:02:46.89    \nframe=  277 fps=1.7 q=30.0 size=    3072KiB time=00:00:02.30 bitrate=10902.2kbits/s speed=0.0138x elapsed=0:02:47.41    \nframe=  278 fps=1.7 q=19.0 size=    3072KiB time=00:00:02.31 bitrate=10862.9kbits/s speed=0.0138x elapsed=0:02:47.93    \nframe=  279 fps=1.7 q=31.0 size=    3072KiB time=00:00:02.32 bitrate=10824.0kbits/s speed=0.0138x elapsed=0:02:48.45    \nframe=  281 fps=1.7 q=30.0 size=    3072KiB time=00:00:02.34 bitrate=10747.0kbits/s speed=0.0139x elapsed=0:02:48.97    \nframe=  282 fps=1.7 q=29.0 size=    3072KiB time=00:00:02.35 bitrate=10708.9kbits/s speed=0.0139x elapsed=0:02:49.49    \nframe=  282 fps=1.7 q=29.0 size=    3072KiB time=00:00:02.35 bitrate=10708.9kbits/s speed=0.0138x elapsed=0:02:50.00    \nframe=  283 fps=1.7 q=31.0 size=    3072KiB time=00:00:02.35 bitrate=10671.0kbits/s speed=0.0138x elapsed=0:02:50.51    \nframe=  284 fps=1.7 q=30.0 size=    3072KiB time=00:00:02.36 bitrate=10633.4kbits/s speed=0.0138x elapsed=0:02:51.03    \nframe=  284 fps=1.7 q=30.0 size=    3072KiB time=00:00:02.36 bitrate=10633.4kbits/s speed=0.0138x elapsed=0:02:51.55    \nframe=  286 fps=1.7 q=31.0 size=    3072KiB time=00:00:02.38 bitrate=10559.1kbits/s speed=0.0138x elapsed=0:02:52.08    \nframe=  286 fps=1.7 q=31.0 size=    3072KiB time=00:00:02.38 bitrate=10559.1kbits/s speed=0.0138x elapsed=0:02:52.59    \nframe=  287 fps=1.7 q=27.0 size=    3072KiB time=00:00:02.39 bitrate=10522.3kbits/s speed=0.0138x elapsed=0:02:53.11    \nframe=  288 fps=1.7 q=30.0 size=    3072KiB time=00:00:02.40 bitrate=10485.8kbits/s speed=0.0138x elapsed=0:02:53.63    \nframe=  289 fps=1.7 q=29.0 size=    3072KiB time=00:00:02.40 bitrate=10449.5kbits/s speed=0.0138x elapsed=0:02:54.16    \nframe=  289 fps=1.7 q=29.0 size=    3072KiB time=00:00:02.40 bitrate=10449.5kbits/s speed=0.0138x elapsed=0:02:54.68    \nframe=  290 fps=1.7 q=31.0 size=    3072KiB time=00:00:02.41 bitrate=10413.4kbits/s speed=0.0138x elapsed=0:02:55.19    \nframe=  291 fps=1.7 q=30.0 size=    3072KiB time=00:00:02.42 bitrate=10377.7kbits/s speed=0.0138x elapsed=0:02:55.71    \nframe=  291 fps=1.7 q=30.0 size=    3072KiB time=00:00:02.42 bitrate=10377.7kbits/s speed=0.0138x elapsed=0:02:56.23    \nframe=  291 fps=1.6 q=30.0 size=    3072KiB time=00:00:02.42 bitrate=10377.7kbits/s speed=0.0137x elapsed=0:02:56.76    \nframe=  293 fps=1.7 q=31.0 size=    3072KiB time=00:00:02.44 bitrate=10306.8kbits/s speed=0.0138x elapsed=0:02:57.27    \nframe=  294 fps=1.7 q=27.0 size=    3072KiB time=00:00:02.45 bitrate=10271.8kbits/s speed=0.0138x elapsed=0:02:57.79    \nframe=  295 fps=1.7 q=30.0 size=    3072KiB time=00:00:02.45 bitrate=10236.9kbits/s speed=0.0138x elapsed=0:02:58.31    \nframe=  296 fps=1.7 q=29.0 size=    3072KiB time=00:00:02.46 bitrate=10202.4kbits/s speed=0.0138x elapsed=0:02:58.83    \nframe=  298 fps=1.7 q=30.0 size=    3072KiB time=00:00:02.48 bitrate=10133.9kbits/s speed=0.0138x elapsed=0:02:59.34    \nframe=  298 fps=1.7 q=30.0 size=    3072KiB time=00:00:02.48 bitrate=10133.9kbits/s speed=0.0138x elapsed=0:02:59.86    \nframe=  298 fps=1.7 q=30.0 size=    3072KiB time=00:00:02.48 bitrate=10133.9kbits/s speed=0.0138x elapsed=0:03:00.38    \nframe=  300 fps=1.7 q=31.0 size=    3072KiB time=00:00:02.50 bitrate=10066.3kbits/s speed=0.0138x elapsed=0:03:00.90    \nframe=  301 fps=1.7 q=27.0 size=    3072KiB time=00:00:02.50 bitrate=10032.9kbits/s speed=0.0138x elapsed=0:03:01.42    \nframe=  302 fps=1.7 q=30.0 size=    3072KiB time=00:00:02.51 bitrate=9999.7kbits/s speed=0.0138x elapsed=0:03:01.93    \nframe=  302 fps=1.7 q=30.0 size=    3072KiB time=00:00:02.51 bitrate=9999.7kbits/s speed=0.0138x elapsed=0:03:02.44    \nframe=  303 fps=1.7 q=29.0 size=    3072KiB time=00:00:02.52 bitrate=9966.7kbits/s speed=0.0138x elapsed=0:03:02.96    \nframe=  304 fps=1.7 q=31.0 size=    3072KiB time=00:00:02.53 bitrate=9933.9kbits/s speed=0.0138x elapsed=0:03:03.48    \nframe=  305 fps=1.7 q=30.0 size=    3072KiB time=00:00:02.54 bitrate=9901.3kbits/s speed=0.0138x elapsed=0:03:03.99    \nframe=  305 fps=1.7 q=30.0 size=    3072KiB time=00:00:02.54 bitrate=9901.3kbits/s speed=0.0138x elapsed=0:03:04.51    \nframe=  306 fps=1.7 q=19.0 size=    3072KiB time=00:00:02.55 bitrate=9869.0kbits/s speed=0.0138x elapsed=0:03:05.03    \nframe=  307 fps=1.7 q=31.0 size=    3072KiB time=00:00:02.55 bitrate=9836.8kbits/s speed=0.0138x elapsed=0:03:05.54    \nframe=  308 fps=1.7 q=27.0 size=    3072KiB time=00:00:02.56 bitrate=9804.9kbits/s speed=0.0138x elapsed=0:03:06.06    \nframe=  309 fps=1.7 q=30.0 size=    3072KiB time=00:00:02.57 bitrate=9773.1kbits/s speed=0.0138x elapsed=0:03:06.58    \nframe=  310 fps=1.7 q=29.0 size=    3072KiB time=00:00:02.58 bitrate=9741.6kbits/s speed=0.0138x elapsed=0:03:07.11    \nframe=  311 fps=1.7 q=31.0 size=    3072KiB time=00:00:02.59 bitrate=9710.3kbits/s speed=0.0138x elapsed=0:03:07.63    \nframe=  312 fps=1.7 q=30.0 size=    3072KiB time=00:00:02.60 bitrate=9679.2kbits/s speed=0.0138x elapsed=0:03:08.15    \nframe=  312 fps=1.7 q=30.0 size=    3072KiB time=00:00:02.60 bitrate=9679.2kbits/s speed=0.0138x elapsed=0:03:08.68    \nframe=  314 fps=1.7 q=31.0 size=    3072KiB time=00:00:02.61 bitrate=9617.5kbits/s speed=0.0138x elapsed=0:03:09.18    \nframe=  315 fps=1.7 q=27.0 size=    3072KiB time=00:00:02.62 bitrate=9587.0kbits/s speed=0.0138x elapsed=0:03:09.71    \nframe=  316 fps=1.7 q=30.0 size=    3072KiB time=00:00:02.63 bitrate=9556.6kbits/s speed=0.0138x elapsed=0:03:10.23    \nframe=  317 fps=1.7 q=29.0 size=    3072KiB time=00:00:02.64 bitrate=9526.5kbits/s speed=0.0138x elapsed=0:03:10.74    \nframe=  318 fps=1.7 q=31.0 size=    3072KiB time=00:00:02.65 bitrate=9496.5kbits/s speed=0.0139x elapsed=0:03:11.27    \nframe=  318 fps=1.7 q=31.0 size=    3072KiB time=00:00:02.65 bitrate=9496.5kbits/s speed=0.0138x elapsed=0:03:11.80    \nframe=  319 fps=1.7 q=30.0 size=    3072KiB time=00:00:02.65 bitrate=9466.8kbits/s speed=0.0138x elapsed=0:03:12.31    \nframe=  319 fps=1.7 q=30.0 size=    3072KiB time=00:00:02.65 bitrate=9466.8kbits/s speed=0.0138x elapsed=0:03:12.82    \nframe=  320 fps=1.7 q=19.0 size=    3072KiB time=00:00:02.66 bitrate=9437.2kbits/s speed=0.0138x elapsed=0:03:13.34    \nframe=  321 fps=1.7 q=31.0 size=    3072KiB time=00:00:02.67 bitrate=9407.8kbits/s speed=0.0138x elapsed=0:03:13.87    \nframe=  321 fps=1.7 q=31.0 size=    3072KiB time=00:00:02.67 bitrate=9407.8kbits/s speed=0.0138x elapsed=0:03:14.40    \nframe=  322 fps=1.7 q=27.0 size=    3072KiB time=00:00:02.68 bitrate=9378.6kbits/s speed=0.0138x elapsed=0:03:14.93    \nframe=  323 fps=1.7 q=30.0 size=    3072KiB time=00:00:02.69 bitrate=9349.5kbits/s speed=0.0138x elapsed=0:03:15.45    \nframe=  324 fps=1.7 q=29.0 size=    3072KiB time=00:00:02.70 bitrate=9320.7kbits/s speed=0.0138x elapsed=0:03:15.98    \nframe=  325 fps=1.7 q=31.0 size=    3072KiB time=00:00:02.70 bitrate=9292.0kbits/s speed=0.0138x elapsed=0:03:16.51    \nframe=  326 fps=1.7 q=30.0 size=    3072KiB time=00:00:02.71 bitrate=9263.5kbits/s speed=0.0138x elapsed=0:03:17.03    \nframe=  326 fps=1.7 q=30.0 size=    3072KiB time=00:00:02.71 bitrate=9263.5kbits/s speed=0.0138x elapsed=0:03:17.54    \nframe=  328 fps=1.7 q=31.0 size=    3072KiB time=00:00:02.73 bitrate=9207.0kbits/s speed=0.0138x elapsed=0:03:18.06    \nframe=  329 fps=1.7 q=27.0 size=    3072KiB time=00:00:02.74 bitrate=9179.0kbits/s speed=0.0138x elapsed=0:03:18.57    \nframe=  330 fps=1.7 q=30.0 size=    3072KiB time=00:00:02.75 bitrate=9151.2kbits/s speed=0.0138x elapsed=0:03:19.09    \nframe=  331 fps=1.7 q=29.0 size=    3072KiB time=00:00:02.75 bitrate=9123.6kbits/s speed=0.0138x elapsed=0:03:19.61    \nframe=  332 fps=1.7 q=31.0 size=    3072KiB time=00:00:02.76 bitrate=9096.1kbits/s speed=0.0138x elapsed=0:03:20.12    \nframe=  333 fps=1.7 q=30.0 size=    3072KiB time=00:00:02.77 bitrate=9068.8kbits/s speed=0.0138x elapsed=0:03:20.63    \nframe=  333 fps=1.7 q=30.0 size=    3072KiB time=00:00:02.77 bitrate=9068.8kbits/s speed=0.0138x elapsed=0:03:21.16    \nframe=  333 fps=1.7 q=30.0 size=    3072KiB time=00:00:02.77 bitrate=9068.8kbits/s speed=0.0138x elapsed=0:03:21.69    \nframe=  335 fps=1.7 q=31.0 size=    3072KiB time=00:00:02.79 bitrate=9014.6kbits/s speed=0.0138x elapsed=0:03:22.20    \nframe=  335 fps=1.7 q=31.0 size=    3072KiB time=00:00:02.79 bitrate=9014.6kbits/s speed=0.0138x elapsed=0:03:22.71    \nframe=  336 fps=1.7 q=27.0 size=    3072KiB time=00:00:02.80 bitrate=8987.8kbits/s speed=0.0138x elapsed=0:03:23.23    \nframe=  337 fps=1.7 q=30.0 size=    3072KiB time=00:00:02.80 bitrate=8961.1kbits/s speed=0.0138x elapsed=0:03:23.74    \nframe=  338 fps=1.7 q=29.0 size=    3072KiB time=00:00:02.81 bitrate=8934.6kbits/s speed=0.0138x elapsed=0:03:24.26    \nframe=  338 fps=1.7 q=29.0 size=    3072KiB time=00:00:02.81 bitrate=8934.6kbits/s speed=0.0138x elapsed=0:03:24.79    \nframe=  339 fps=1.7 q=30.0 size=    3072KiB time=00:00:02.82 bitrate=8908.3kbits/s speed=0.0138x elapsed=0:03:25.31    \nframe=  340 fps=1.7 q=30.0 size=    3072KiB time=00:00:02.83 bitrate=8882.1kbits/s speed=0.0138x elapsed=0:03:25.82    \nframe=  340 fps=1.6 q=30.0 size=    3072KiB time=00:00:02.83 bitrate=8882.1kbits/s speed=0.0137x elapsed=0:03:26.35    \nframe=  341 fps=1.6 q=19.0 size=    3072KiB time=00:00:02.84 bitrate=8856.0kbits/s speed=0.0137x elapsed=0:03:26.87    \nframe=  342 fps=1.6 q=31.0 size=    3072KiB time=00:00:02.85 bitrate=8830.1kbits/s speed=0.0137x elapsed=0:03:27.39    \nframe=  343 fps=1.6 q=27.0 size=    3072KiB time=00:00:02.85 bitrate=8804.4kbits/s speed=0.0137x elapsed=0:03:27.90    \nframe=  344 fps=1.7 q=30.0 size=    3072KiB time=00:00:02.86 bitrate=8778.8kbits/s speed=0.0138x elapsed=0:03:28.43    \nframe=  346 fps=1.7 q=30.0 size=    3072KiB time=00:00:02.88 bitrate=8728.0kbits/s speed=0.0138x elapsed=0:03:28.96    \nframe=  347 fps=1.7 q=30.0 size=    3072KiB time=00:00:02.89 bitrate=8702.9kbits/s speed=0.0138x elapsed=0:03:29.49    \nframe=  347 fps=1.7 q=30.0 size=    3072KiB time=00:00:02.89 bitrate=8702.9kbits/s speed=0.0138x elapsed=0:03:30.03    \nframe=  348 fps=1.7 q=18.0 size=    3072KiB time=00:00:02.90 bitrate=8677.9kbits/s speed=0.0138x elapsed=0:03:30.57    \nframe=  349 fps=1.7 q=31.0 size=    3072KiB time=00:00:02.90 bitrate=8653.0kbits/s speed=0.0138x elapsed=0:03:31.11    \nframe=  350 fps=1.7 q=27.0 size=    3072KiB time=00:00:02.91 bitrate=8628.3kbits/s speed=0.0138x elapsed=0:03:31.66    \nframe=  351 fps=1.7 q=30.0 size=    3072KiB time=00:00:02.92 bitrate=8603.7kbits/s speed=0.0138x elapsed=0:03:32.22    \nframe=  352 fps=1.7 q=29.0 size=    3072KiB time=00:00:02.92 bitrate=8603.7kbits/s speed=0.0137x elapsed=0:03:32.77    \nframe=  352 fps=1.7 q=29.0 size=    3072KiB time=00:00:02.93 bitrate=8579.3kbits/s speed=0.0138x elapsed=0:03:33.32    \nframe=  353 fps=1.7 q=31.0 size=    3072KiB time=00:00:02.94 bitrate=8555.0kbits/s speed=0.0138x elapsed=0:03:33.87    \nframe=  354 fps=1.7 q=30.0 size=    3072KiB time=00:00:02.95 bitrate=8530.8kbits/s speed=0.0138x elapsed=0:03:34.42    \nframe=  354 fps=1.6 q=30.0 size=    3072KiB time=00:00:02.95 bitrate=8530.8kbits/s speed=0.0137x elapsed=0:03:34.97    \nframe=  355 fps=1.6 q=18.0 size=    3072KiB time=00:00:02.95 bitrate=8506.8kbits/s speed=0.0137x elapsed=0:03:35.51    \nframe=  356 fps=1.6 q=31.0 size=    3072KiB time=00:00:02.96 bitrate=8482.9kbits/s speed=0.0137x elapsed=0:03:36.05    \nframe=  357 fps=1.6 q=27.0 size=    3072KiB time=00:00:02.97 bitrate=8459.1kbits/s speed=0.0137x elapsed=0:03:36.59    \nframe=  358 fps=1.6 q=30.0 size=    3072KiB time=00:00:02.98 bitrate=8435.5kbits/s speed=0.0137x elapsed=0:03:37.14    \nframe=  359 fps=1.6 q=29.0 size=    3072KiB time=00:00:02.99 bitrate=8412.0kbits/s speed=0.0137x elapsed=0:03:37.69    \nframe=  360 fps=1.6 q=30.0 size=    3072KiB time=00:00:03.00 bitrate=8388.6kbits/s speed=0.0137x elapsed=0:03:38.22    \nframe=  361 fps=1.7 q=30.0 size=    3072KiB time=00:00:03.00 bitrate=8365.4kbits/s speed=0.0138x elapsed=0:03:38.75    \nframe=  361 fps=1.6 q=30.0 size=    3072KiB time=00:00:03.00 bitrate=8365.4kbits/s speed=0.0137x elapsed=0:03:39.30    \nframe=  363 fps=1.7 q=31.0 size=    3072KiB time=00:00:03.02 bitrate=8319.3kbits/s speed=0.0138x elapsed=0:03:39.84    \nframe=  363 fps=1.6 q=31.0 size=    3072KiB time=00:00:03.02 bitrate=8319.3kbits/s speed=0.0137x elapsed=0:03:40.39    \nframe=  364 fps=1.6 q=27.0 size=    3072KiB time=00:00:03.03 bitrate=8296.4kbits/s speed=0.0137x elapsed=0:03:40.93    \nframe=  365 fps=1.6 q=29.0 size=    3072KiB time=00:00:03.04 bitrate=8273.7kbits/s speed=0.0137x elapsed=0:03:41.48    \nframe=  366 fps=1.6 q=29.0 size=    3072KiB time=00:00:03.05 bitrate=8251.1kbits/s speed=0.0137x elapsed=0:03:42.04    \nframe=  367 fps=1.6 q=30.0 size=    3072KiB time=00:00:03.05 bitrate=8228.6kbits/s speed=0.0137x elapsed=0:03:42.60    \nframe=  368 fps=1.6 q=30.0 size=    3072KiB time=00:00:03.06 bitrate=8206.2kbits/s speed=0.0137x elapsed=0:03:43.15    \nframe=  368 fps=1.6 q=30.0 size=    3072KiB time=00:00:03.06 bitrate=8206.2kbits/s speed=0.0137x elapsed=0:03:43.69    \nframe=  369 fps=1.6 q=18.0 size=    3072KiB time=00:00:03.07 bitrate=8184.0kbits/s speed=0.0137x elapsed=0:03:44.24    \nframe=  370 fps=1.6 q=31.0 size=    3072KiB time=00:00:03.08 bitrate=8161.9kbits/s speed=0.0137x elapsed=0:03:44.80    \nframe=  371 fps=1.6 q=26.0 size=    3072KiB time=00:00:03.09 bitrate=8139.9kbits/s speed=0.0137x elapsed=0:03:45.35    \nframe=  372 fps=1.6 q=29.0 size=    3072KiB time=00:00:03.10 bitrate=8118.0kbits/s speed=0.0137x elapsed=0:03:45.90    \nframe=  373 fps=1.6 q=28.0 size=    3072KiB time=00:00:03.10 bitrate=8096.2kbits/s speed=0.0137x elapsed=0:03:46.46    \nframe=  374 fps=1.6 q=30.0 size=    3072KiB time=00:00:03.11 bitrate=8074.6kbits/s speed=0.0137x elapsed=0:03:47.01    \nframe=  375 fps=1.6 q=29.0 size=    3072KiB time=00:00:03.12 bitrate=8053.1kbits/s speed=0.0137x elapsed=0:03:47.57    \nframe=  375 fps=1.6 q=29.0 size=    3072KiB time=00:00:03.12 bitrate=8053.1kbits/s speed=0.0137x elapsed=0:03:48.13    \nframe=  375 fps=1.6 q=29.0 size=    3072KiB time=00:00:03.12 bitrate=8053.1kbits/s speed=0.0137x elapsed=0:03:48.69    \nframe=  377 fps=1.6 q=29.0 size=    3072KiB time=00:00:03.14 bitrate=8010.3kbits/s speed=0.0137x elapsed=0:03:49.23    \nframe=  378 fps=1.6 q=25.0 size=    3072KiB time=00:00:03.15 bitrate=7989.2kbits/s speed=0.0137x elapsed=0:03:49.78    \nframe=  378 fps=1.6 q=25.0 size=    3072KiB time=00:00:03.15 bitrate=7989.2kbits/s speed=0.0137x elapsed=0:03:50.34    \nframe=  379 fps=1.6 q=28.0 size=    3072KiB time=00:00:03.15 bitrate=7968.1kbits/s speed=0.0137x elapsed=0:03:50.89    \nframe=  380 fps=1.6 q=28.0 size=    3072KiB time=00:00:03.16 bitrate=7947.1kbits/s speed=0.0137x elapsed=0:03:51.45    \nframe=  381 fps=1.6 q=29.0 size=    3072KiB time=00:00:03.17 bitrate=7926.2kbits/s speed=0.0137x elapsed=0:03:52.00    \nframe=  382 fps=1.6 q=29.0 size=    3072KiB time=00:00:03.18 bitrate=7905.5kbits/s speed=0.0137x elapsed=0:03:52.56    \nframe=  383 fps=1.6 q=30.0 size=    3072KiB time=00:00:03.19 bitrate=7884.9kbits/s speed=0.0137x elapsed=0:03:53.11    \nframe=  384 fps=1.6 q=29.0 size=    3072KiB time=00:00:03.20 bitrate=7864.3kbits/s speed=0.0137x elapsed=0:03:53.66    \nframe=  384 fps=1.6 q=29.0 size=    3072KiB time=00:00:03.20 bitrate=7864.3kbits/s speed=0.0137x elapsed=0:03:54.20    \nframe=  385 fps=1.6 q=17.0 size=    3072KiB time=00:00:03.20 bitrate=7843.9kbits/s speed=0.0137x elapsed=0:03:54.76    \nframe=  386 fps=1.6 q=31.0 size=    4864KiB time=00:00:03.21 bitrate=12387.3kbits/s speed=0.0137x elapsed=0:03:55.32    \nframe=  388 fps=1.6 q=29.0 size=    4864KiB time=00:00:03.22 bitrate=12355.3kbits/s speed=0.0137x elapsed=0:03:55.87    \nframe=  388 fps=1.6 q=29.0 size=    4864KiB time=00:00:03.23 bitrate=12323.5kbits/s speed=0.0137x elapsed=0:03:56.42    \nframe=  389 fps=1.6 q=29.0 size=    4864KiB time=00:00:03.24 bitrate=12291.8kbits/s speed=0.0137x elapsed=0:03:56.96    \nframe=  390 fps=1.6 q=30.0 size=    4864KiB time=00:00:03.25 bitrate=12260.3kbits/s speed=0.0137x elapsed=0:03:57.49    \nframe=  391 fps=1.6 q=30.0 size=    4864KiB time=00:00:03.25 bitrate=12228.9kbits/s speed=0.0137x elapsed=0:03:58.04    \nframe=  391 fps=1.6 q=30.0 size=    4864KiB time=00:00:03.25 bitrate=12228.9kbits/s speed=0.0137x elapsed=0:03:58.59    \nframe=  393 fps=1.6 q=31.0 size=    4864KiB time=00:00:03.27 bitrate=12166.7kbits/s speed=0.0137x elapsed=0:03:59.12    \nframe=  393 fps=1.6 q=31.0 size=    4864KiB time=00:00:03.27 bitrate=12166.7kbits/s speed=0.0137x elapsed=0:03:59.67    \nframe=  394 fps=1.6 q=27.0 size=    4864KiB time=00:00:03.28 bitrate=12135.8kbits/s speed=0.0137x elapsed=0:04:00.22    \nframe=  396 fps=1.6 q=29.0 size=    4864KiB time=00:00:03.29 bitrate=12105.1kbits/s speed=0.0137x elapsed=0:04:00.87    \nframe=  398 fps=1.6 q=30.0 size=    4864KiB time=00:00:03.31 bitrate=12013.8kbits/s speed=0.0137x elapsed=0:04:01.80    \nframe=  400 fps=1.6 q=27.0 size=    4864KiB time=00:00:03.31 bitrate=12013.8kbits/s speed=0.0137x elapsed=0:04:02.74    \nframe=  401 fps=1.6 q=25.0 size=    4864KiB time=00:00:03.34 bitrate=11924.0kbits/s speed=0.0137x elapsed=0:04:03.72    \nframe=  403 fps=1.6 q=26.0 size=    4864KiB time=00:00:03.35 bitrate=11894.3kbits/s speed=0.0137x elapsed=0:04:04.48    \nframe=  406 fps=1.7 q=28.0 size=    4864KiB time=00:00:03.37 bitrate=11806.2kbits/s speed=0.0138x elapsed=0:04:05.35    \nframe=  407 fps=1.7 q=28.0 size=    4864KiB time=00:00:03.39 bitrate=11748.2kbits/s speed=0.0138x elapsed=0:04:06.32    \nframe=  409 fps=1.7 q=28.0 size=    4864KiB time=00:00:03.40 bitrate=11690.7kbits/s speed=0.0138x elapsed=0:04:06.85    \nframe=  410 fps=1.7 q=29.0 size=    4864KiB time=00:00:03.41 bitrate=11662.2kbits/s speed=0.0138x elapsed=0:04:07.43    \nframe=  412 fps=1.7 q=29.0 size=    4864KiB time=00:00:03.43 bitrate=11605.6kbits/s speed=0.0138x elapsed=0:04:07.98    \nframe=  413 fps=1.7 q=28.0 size=    4864KiB time=00:00:03.44 bitrate=11577.5kbits/s speed=0.0138x elapsed=0:04:08.56    \nframe=  414 fps=1.7 q=16.0 size=    4864KiB time=00:00:03.45 bitrate=11549.5kbits/s speed=0.0138x elapsed=0:04:09.20    \nframe=  415 fps=1.7 q=29.0 size=    4864KiB time=00:00:03.45 bitrate=11521.7kbits/s speed=0.0138x elapsed=0:04:09.76    \nframe=  416 fps=1.7 q=25.0 size=    4864KiB time=00:00:03.46 bitrate=11494.0kbits/s speed=0.0138x elapsed=0:04:10.32    \nframe=  417 fps=1.7 q=27.0 size=    4864KiB time=00:00:03.47 bitrate=11466.4kbits/s speed=0.0139x elapsed=0:04:10.89    \nframe=  419 fps=1.7 q=28.0 size=    4864KiB time=00:00:03.49 bitrate=11411.7kbits/s speed=0.0139x elapsed=0:04:11.40    \nframe=  420 fps=1.7 q=27.0 size=    4864KiB time=00:00:03.50 bitrate=11384.5kbits/s speed=0.0139x elapsed=0:04:11.99    \nframe=  422 fps=1.7 q=28.0 size=    4864KiB time=00:00:03.51 bitrate=11330.6kbits/s speed=0.0139x elapsed=0:04:12.54    \nframe=  423 fps=1.7 q=28.0 size=    4864KiB time=00:00:03.52 bitrate=11303.8kbits/s speed=0.0139x elapsed=0:04:13.11    \nframe=  424 fps=1.7 q=28.0 size=    4864KiB time=00:00:03.53 bitrate=11277.1kbits/s speed=0.0139x elapsed=0:04:13.62    \nframe=  426 fps=1.7 q=29.0 size=    4864KiB time=00:00:03.55 bitrate=11224.2kbits/s speed=0.014x elapsed=0:04:14.14    \nframe=  426 fps=1.7 q=29.0 size=    4864KiB time=00:00:03.55 bitrate=11224.2kbits/s speed=0.0139x elapsed=0:04:14.65    \nframe=  428 fps=1.7 q=29.0 size=    4864KiB time=00:00:03.56 bitrate=11171.7kbits/s speed=0.014x elapsed=0:04:15.17    \nframe=  428 fps=1.7 q=29.0 size=    4864KiB time=00:00:03.56 bitrate=11171.7kbits/s speed=0.0139x elapsed=0:04:15.68    \nframe=  430 fps=1.7 q=32.0 size=    4864KiB time=00:00:03.58 bitrate=11119.8kbits/s speed=0.014x elapsed=0:04:16.20    \nframe=  432 fps=1.7 q=30.0 size=    4864KiB time=00:00:03.60 bitrate=11068.3kbits/s speed=0.014x elapsed=0:04:16.72    \nframe=  433 fps=1.7 q=29.0 size=    4864KiB time=00:00:03.60 bitrate=11042.7kbits/s speed=0.014x elapsed=0:04:17.24    \nframe=  435 fps=1.7 q=30.0 size=    4864KiB time=00:00:03.62 bitrate=10992.0kbits/s speed=0.0141x elapsed=0:04:17.75    \nframe=  435 fps=1.7 q=30.0 size=    4864KiB time=00:00:03.62 bitrate=10992.0kbits/s speed=0.014x elapsed=0:04:18.26    \nframe=  437 fps=1.7 q=31.0 size=    4864KiB time=00:00:03.64 bitrate=10941.7kbits/s speed=0.0141x elapsed=0:04:18.78    \nframe=  438 fps=1.7 q=27.0 size=    4864KiB time=00:00:03.65 bitrate=10916.7kbits/s speed=0.0141x elapsed=0:04:19.29    \nframe=  439 fps=1.7 q=30.0 size=    4864KiB time=00:00:03.65 bitrate=10891.8kbits/s speed=0.0141x elapsed=0:04:19.82    \nframe=  441 fps=1.7 q=31.0 size=    4864KiB time=00:00:03.67 bitrate=10842.4kbits/s speed=0.0141x elapsed=0:04:20.32    \nframe=  442 fps=1.7 q=30.0 size=    4864KiB time=00:00:03.68 bitrate=10817.9kbits/s speed=0.0141x elapsed=0:04:20.84    \nframe=  442 fps=1.7 q=30.0 size=    4864KiB time=00:00:03.68 bitrate=10817.9kbits/s speed=0.0141x elapsed=0:04:21.36    \nframe=  444 fps=1.7 q=27.0 size=    4864KiB time=00:00:03.70 bitrate=10769.2kbits/s speed=0.0141x elapsed=0:04:21.87    \nframe=  445 fps=1.7 q=25.0 size=    4864KiB time=00:00:03.70 bitrate=10745.0kbits/s speed=0.0141x elapsed=0:04:22.38    \nframe=  446 fps=1.7 q=27.0 size=    4864KiB time=00:00:03.71 bitrate=10720.9kbits/s speed=0.0141x elapsed=0:04:22.91    \nframe=  448 fps=1.7 q=28.0 size=    4864KiB time=00:00:03.73 bitrate=10673.0kbits/s speed=0.0142x elapsed=0:04:23.42    \nframe=  449 fps=1.7 q=27.0 size=    4864KiB time=00:00:03.74 bitrate=10649.2kbits/s speed=0.0142x elapsed=0:04:23.93    \nframe=  450 fps=1.7 q=28.0 size=    4864KiB time=00:00:03.75 bitrate=10625.6kbits/s speed=0.0142x elapsed=0:04:24.45    \nframe=  452 fps=1.7 q=29.0 size=    4864KiB time=00:00:03.76 bitrate=10578.6kbits/s speed=0.0142x elapsed=0:04:24.97    \nframe=  453 fps=1.7 q=28.0 size=    4864KiB time=00:00:03.77 bitrate=10555.2kbits/s speed=0.0142x elapsed=0:04:25.48    \nframe=  455 fps=1.7 q=28.0 size=    4864KiB time=00:00:03.79 bitrate=10508.8kbits/s speed=0.0143x elapsed=0:04:25.99    \nframe=  456 fps=1.7 q=29.0 size=    4864KiB time=00:00:03.80 bitrate=10485.8kbits/s speed=0.0143x elapsed=0:04:26.52    \nframe=  457 fps=1.7 q=28.0 size=    4864KiB time=00:00:03.80 bitrate=10462.8kbits/s speed=0.0143x elapsed=0:04:27.03    \nframe=  457 fps=1.7 q=28.0 size=    4864KiB time=00:00:03.80 bitrate=10462.8kbits/s speed=0.0142x elapsed=0:04:27.54    \nframe=  459 fps=1.7 q=30.0 size=    4864KiB time=00:00:03.82 bitrate=10417.2kbits/s speed=0.0143x elapsed=0:04:28.07    \nframe=  460 fps=1.7 q=25.0 size=    4864KiB time=00:00:03.83 bitrate=10394.6kbits/s speed=0.0143x elapsed=0:04:28.57    \nframe=  462 fps=1.7 q=27.0 size=    4864KiB time=00:00:03.85 bitrate=10349.6kbits/s speed=0.0143x elapsed=0:04:29.09    \nframe=  464 fps=1.7 q=28.0 size=    4864KiB time=00:00:03.86 bitrate=10305.0kbits/s speed=0.0143x elapsed=0:04:29.61    \nframe=  465 fps=1.7 q=29.0 size=    4864KiB time=00:00:03.87 bitrate=10282.8kbits/s speed=0.0143x elapsed=0:04:30.12    \nframe=  466 fps=1.7 q=29.0 size=    4864KiB time=00:00:03.88 bitrate=10260.7kbits/s speed=0.0143x elapsed=0:04:30.64    \nframe=  467 fps=1.7 q=29.0 size=    4864KiB time=00:00:03.89 bitrate=10238.8kbits/s speed=0.0144x elapsed=0:04:31.16    \nframe=  469 fps=1.7 q=29.0 size=    4864KiB time=00:00:03.90 bitrate=10195.1kbits/s speed=0.0144x elapsed=0:04:31.66    \nframe=  470 fps=1.7 q=29.0 size=    4864KiB time=00:00:03.91 bitrate=10173.4kbits/s speed=0.0144x elapsed=0:04:32.19    \nframe=  471 fps=1.7 q=29.0 size=    4864KiB time=00:00:03.92 bitrate=10151.8kbits/s speed=0.0144x elapsed=0:04:32.70    \nframe=  472 fps=1.7 q=30.0 size=    4864KiB time=00:00:03.93 bitrate=10130.3kbits/s speed=0.0144x elapsed=0:04:33.21    \nframe=  473 fps=1.7 q=20.0 size=    4864KiB time=00:00:03.94 bitrate=10108.9kbits/s speed=0.0144x elapsed=0:04:33.73    \nframe=  474 fps=1.7 q=32.0 size=    4864KiB time=00:00:03.95 bitrate=10087.6kbits/s speed=0.0144x elapsed=0:04:34.24    \nframe=  476 fps=1.7 q=30.0 size=    4864KiB time=00:00:03.96 bitrate=10045.2kbits/s speed=0.0144x elapsed=0:04:34.77    \nframe=  477 fps=1.7 q=29.0 size=    4864KiB time=00:00:03.97 bitrate=10024.1kbits/s speed=0.0144x elapsed=0:04:35.29    \nframe=  479 fps=1.7 q=31.0 size=    4864KiB time=00:00:03.99 bitrate=9982.3kbits/s speed=0.0145x elapsed=0:04:35.79    \nframe=  479 fps=1.7 q=31.0 size=    4864KiB time=00:00:03.99 bitrate=9982.3kbits/s speed=0.0144x elapsed=0:04:36.30    \nframe=  482 fps=1.7 q=27.0 size=    4864KiB time=00:00:04.01 bitrate=9920.1kbits/s speed=0.0145x elapsed=0:04:36.82    \nframe=  482 fps=1.7 q=27.0 size=    4864KiB time=00:00:04.01 bitrate=9920.1kbits/s speed=0.0145x elapsed=0:04:37.34    \nframe=  484 fps=1.7 q=29.0 size=    4864KiB time=00:00:04.03 bitrate=9879.1kbits/s speed=0.0145x elapsed=0:04:37.86    \nframe=  486 fps=1.7 q=31.0 size=    4864KiB time=00:00:04.05 bitrate=9838.5kbits/s speed=0.0145x elapsed=0:04:38.37    \nframe=  486 fps=1.7 q=31.0 size=    4864KiB time=00:00:04.05 bitrate=9838.5kbits/s speed=0.0145x elapsed=0:04:38.88    \nframe=  487 fps=1.7 q=16.0 size=    4864KiB time=00:00:04.05 bitrate=9818.3kbits/s speed=0.0145x elapsed=0:04:39.40    \nframe=  488 fps=1.7 q=28.0 size=    4864KiB time=00:00:04.06 bitrate=9798.2kbits/s speed=0.0145x elapsed=0:04:39.91    \nframe=  489 fps=1.7 q=26.0 size=    4864KiB time=00:00:04.07 bitrate=9778.1kbits/s speed=0.0145x elapsed=0:04:40.43    \nframe=  491 fps=1.7 q=28.0 size=    4864KiB time=00:00:04.09 bitrate=9738.3kbits/s speed=0.0146x elapsed=0:04:40.96    \nframe=  492 fps=1.7 q=28.0 size=    4864KiB time=00:00:04.10 bitrate=9718.5kbits/s speed=0.0146x elapsed=0:04:41.47    \nframe=  493 fps=1.7 q=29.0 size=    4864KiB time=00:00:04.10 bitrate=9698.8kbits/s speed=0.0146x elapsed=0:04:41.98    \nframe=  494 fps=1.7 q=29.0 size=    4864KiB time=00:00:04.11 bitrate=9679.2kbits/s speed=0.0146x elapsed=0:04:42.50    \nframe=  495 fps=1.7 q=29.0 size=    4864KiB time=00:00:04.12 bitrate=9659.6kbits/s speed=0.0146x elapsed=0:04:43.01    \nframe=  496 fps=1.7 q=29.0 size=    4864KiB time=00:00:04.13 bitrate=9640.1kbits/s speed=0.0146x elapsed=0:04:43.52    \nframe=  497 fps=1.7 q=30.0 size=    4864KiB time=00:00:04.14 bitrate=9620.7kbits/s speed=0.0146x elapsed=0:04:44.04    \nframe=  498 fps=1.8 q=30.0 size=    4864KiB time=00:00:04.15 bitrate=9601.4kbits/s speed=0.0146x elapsed=0:04:44.55    \nframe=  499 fps=1.8 q=30.0 size=    4864KiB time=00:00:04.15 bitrate=9582.2kbits/s speed=0.0146x elapsed=0:04:45.07    \nframe=  499 fps=1.7 q=30.0 size=    4864KiB time=00:00:04.15 bitrate=9582.2kbits/s speed=0.0146x elapsed=0:04:45.59    \nframe=  499 fps=1.7 q=30.0 size=    4864KiB time=00:00:04.15 bitrate=9582.2kbits/s speed=0.0145x elapsed=0:04:46.11    \nframe=  500 fps=1.7 q=15.0 size=    4864KiB time=00:00:04.16 bitrate=9563.0kbits/s speed=0.0145x elapsed=0:04:46.62    \nframe=  501 fps=1.7 q=31.0 size=    4864KiB time=00:00:04.17 bitrate=9543.9kbits/s speed=0.0145x elapsed=0:04:47.14    \nframe=  501 fps=1.7 q=31.0 size=    4864KiB time=00:00:04.17 bitrate=9543.9kbits/s speed=0.0145x elapsed=0:04:47.65    \nframe=  502 fps=1.7 q=26.0 size=    4864KiB time=00:00:04.18 bitrate=9524.9kbits/s speed=0.0145x elapsed=0:04:48.16    \nframe=  502 fps=1.7 q=26.0 size=    4864KiB time=00:00:04.18 bitrate=9524.9kbits/s speed=0.0145x elapsed=0:04:48.69    \nframe=  503 fps=1.7 q=29.0 size=    4864KiB time=00:00:04.19 bitrate=9506.0kbits/s speed=0.0145x elapsed=0:04:49.20    \nframe=  504 fps=1.7 q=28.0 size=    4864KiB time=00:00:04.20 bitrate=9487.1kbits/s speed=0.0145x elapsed=0:04:49.71    \nframe=  505 fps=1.7 q=30.0 size=    4864KiB time=00:00:04.20 bitrate=9468.3kbits/s speed=0.0145x elapsed=0:04:50.23    \nframe=  506 fps=1.7 q=29.0 size=    4864KiB time=00:00:04.21 bitrate=9449.6kbits/s speed=0.0145x elapsed=0:04:50.75    \nframe=  507 fps=1.7 q=30.0 size=    4864KiB time=00:00:04.22 bitrate=9431.0kbits/s speed=0.0145x elapsed=0:04:51.27    \nframe=  508 fps=1.7 q=30.0 size=    4864KiB time=00:00:04.23 bitrate=9412.4kbits/s speed=0.0145x elapsed=0:04:51.78    \nframe=  509 fps=1.7 q=30.0 size=    4864KiB time=00:00:04.24 bitrate=9393.9kbits/s speed=0.0145x elapsed=0:04:52.30    \nframe=  510 fps=1.7 q=30.0 size=    4864KiB time=00:00:04.25 bitrate=9375.5kbits/s speed=0.0145x elapsed=0:04:52.80    \nframe=  511 fps=1.7 q=30.0 size=    4864KiB time=00:00:04.25 bitrate=9357.2kbits/s speed=0.0145x elapsed=0:04:53.33    \nframe=  512 fps=1.7 q=31.0 size=    4864KiB time=00:00:04.26 bitrate=9338.9kbits/s speed=0.0145x elapsed=0:04:53.84    \nframe=  512 fps=1.7 q=31.0 size=    4864KiB time=00:00:04.26 bitrate=9338.9kbits/s speed=0.0145x elapsed=0:04:54.36    \nframe=  512 fps=1.7 q=31.0 size=    4864KiB time=00:00:04.26 bitrate=9338.9kbits/s speed=0.0145x elapsed=0:04:54.88    \nframe=  513 fps=1.7 q=15.0 size=    4864KiB time=00:00:04.27 bitrate=9320.7kbits/s speed=0.0145x elapsed=0:04:55.39    \nframe=  514 fps=1.7 q=29.0 size=    6400KiB time=00:00:04.28 bitrate=12240.2kbits/s speed=0.0145x elapsed=0:04:55.91    \nframe=  515 fps=1.7 q=25.0 size=    6400KiB time=00:00:04.29 bitrate=12216.4kbits/s speed=0.0145x elapsed=0:04:56.42    \nframe=  516 fps=1.7 q=27.0 size=    6400KiB time=00:00:04.30 bitrate=12192.7kbits/s speed=0.0145x elapsed=0:04:56.93    \nframe=  517 fps=1.7 q=27.0 size=    6400KiB time=00:00:04.30 bitrate=12169.2kbits/s speed=0.0145x elapsed=0:04:57.45    \nframe=  517 fps=1.7 q=27.0 size=    6400KiB time=00:00:04.30 bitrate=12169.2kbits/s speed=0.0145x elapsed=0:04:57.97    \nframe=  518 fps=1.7 q=28.0 size=    6400KiB time=00:00:04.31 bitrate=12145.7kbits/s speed=0.0145x elapsed=0:04:58.48    \nframe=  519 fps=1.7 q=28.0 size=    6400KiB time=00:00:04.32 bitrate=12122.3kbits/s speed=0.0145x elapsed=0:04:59.00    \nframe=  520 fps=1.7 q=29.0 size=    6400KiB time=00:00:04.33 bitrate=12099.0kbits/s speed=0.0145x elapsed=0:04:59.51    \nframe=  521 fps=1.7 q=29.0 size=    6400KiB time=00:00:04.34 bitrate=12075.7kbits/s speed=0.0145x elapsed=0:05:00.03    \nframe=  522 fps=1.7 q=29.0 size=    6400KiB time=00:00:04.35 bitrate=12052.6kbits/s speed=0.0145x elapsed=0:05:00.54    \nframe=  523 fps=1.7 q=29.0 size=    6400KiB time=00:00:04.35 bitrate=12029.6kbits/s speed=0.0145x elapsed=0:05:01.05    \nframe=  524 fps=1.7 q=29.0 size=    6400KiB time=00:00:04.36 bitrate=12006.6kbits/s speed=0.0145x elapsed=0:05:01.58    \nframe=  525 fps=1.7 q=29.0 size=    6400KiB time=00:00:04.37 bitrate=11983.7kbits/s speed=0.0145x elapsed=0:05:02.09    \nframe=  526 fps=1.7 q=29.0 size=    6400KiB time=00:00:04.38 bitrate=11960.9kbits/s speed=0.0145x elapsed=0:05:02.61    \nframe=  527 fps=1.7 q=29.0 size=    6400KiB time=00:00:04.39 bitrate=11938.2kbits/s speed=0.0145x elapsed=0:05:03.13    \nframe=  529 fps=1.7 q=33.0 size=    6400KiB time=00:00:04.40 bitrate=11893.1kbits/s speed=0.0145x elapsed=0:05:03.63    \nframe=  530 fps=1.7 q=27.0 size=    6400KiB time=00:00:04.41 bitrate=11870.7kbits/s speed=0.0145x elapsed=0:05:04.16    \nframe=  531 fps=1.7 q=30.0 size=    6400KiB time=00:00:04.42 bitrate=11848.3kbits/s speed=0.0145x elapsed=0:05:04.67    \nframe=  531 fps=1.7 q=30.0 size=    6400KiB time=00:00:04.42 bitrate=11848.3kbits/s speed=0.0145x elapsed=0:05:05.19    \nframe=  532 fps=1.7 q=29.0 size=    6400KiB time=00:00:04.43 bitrate=11826.0kbits/s speed=0.0145x elapsed=0:05:05.70    \nframe=  533 fps=1.7 q=31.0 size=    6400KiB time=00:00:04.44 bitrate=11803.9kbits/s speed=0.0145x elapsed=0:05:06.22    \nframe=  534 fps=1.7 q=30.0 size=    6400KiB time=00:00:04.45 bitrate=11781.8kbits/s speed=0.0145x elapsed=0:05:06.73    \nframe=  534 fps=1.7 q=30.0 size=    6400KiB time=00:00:04.45 bitrate=11781.8kbits/s speed=0.0145x elapsed=0:05:07.25    \nframe=  535 fps=1.7 q=20.0 size=    6400KiB time=00:00:04.45 bitrate=11759.7kbits/s speed=0.0145x elapsed=0:05:07.76    \nframe=  536 fps=1.7 q=31.0 size=    6400KiB time=00:00:04.46 bitrate=11737.8kbits/s speed=0.0145x elapsed=0:05:08.27    \nframe=  536 fps=1.7 q=31.0 size=    6400KiB time=00:00:04.46 bitrate=11737.8kbits/s speed=0.0145x elapsed=0:05:08.80    \nframe=  537 fps=1.7 q=27.0 size=    6400KiB time=00:00:04.47 bitrate=11715.9kbits/s speed=0.0145x elapsed=0:05:09.31    \nframe=  538 fps=1.7 q=30.0 size=    6400KiB time=00:00:04.48 bitrate=11694.2kbits/s speed=0.0145x elapsed=0:05:09.83    \nframe=  539 fps=1.7 q=29.0 size=    6400KiB time=00:00:04.49 bitrate=11672.5kbits/s speed=0.0145x elapsed=0:05:10.34    \nframe=  540 fps=1.7 q=31.0 size=    6400KiB time=00:00:04.50 bitrate=11650.8kbits/s speed=0.0145x elapsed=0:05:10.85    \nframe=  541 fps=1.7 q=30.0 size=    6400KiB time=00:00:04.50 bitrate=11629.3kbits/s speed=0.0145x elapsed=0:05:11.37    \nframe=  541 fps=1.7 q=30.0 size=    6400KiB time=00:00:04.50 bitrate=11629.3kbits/s speed=0.0145x elapsed=0:05:11.88    \nframe=  542 fps=1.7 q=19.0 size=    6400KiB time=00:00:04.51 bitrate=11607.9kbits/s speed=0.0145x elapsed=0:05:12.41    \nframe=  543 fps=1.7 q=31.0 size=    6400KiB time=00:00:04.52 bitrate=11586.5kbits/s speed=0.0145x elapsed=0:05:12.92    \nframe=  544 fps=1.7 q=27.0 size=    6400KiB time=00:00:04.53 bitrate=11565.2kbits/s speed=0.0145x elapsed=0:05:13.43    \nframe=  545 fps=1.7 q=30.0 size=    6400KiB time=00:00:04.54 bitrate=11544.0kbits/s speed=0.0145x elapsed=0:05:13.96    \nframe=  546 fps=1.7 q=29.0 size=    6400KiB time=00:00:04.55 bitrate=11522.8kbits/s speed=0.0145x elapsed=0:05:14.46    \nframe=  547 fps=1.7 q=31.0 size=    6400KiB time=00:00:04.55 bitrate=11501.7kbits/s speed=0.0145x elapsed=0:05:14.98    \nframe=  548 fps=1.7 q=30.0 size=    6400KiB time=00:00:04.56 bitrate=11480.8kbits/s speed=0.0145x elapsed=0:05:15.49    \nframe=  548 fps=1.7 q=30.0 size=    6400KiB time=00:00:04.56 bitrate=11480.8kbits/s speed=0.0145x elapsed=0:05:16.01    \nframe=  548 fps=1.7 q=30.0 size=    6400KiB time=00:00:04.56 bitrate=11480.8kbits/s speed=0.0144x elapsed=0:05:16.53    \nframe=  549 fps=1.7 q=19.0 size=    6400KiB time=00:00:04.57 bitrate=11459.8kbits/s speed=0.0144x elapsed=0:05:17.05    \nframe=  550 fps=1.7 q=31.0 size=    6400KiB time=00:00:04.58 bitrate=11439.0kbits/s speed=0.0144x elapsed=0:05:17.56    \nframe=  551 fps=1.7 q=27.0 size=    6400KiB time=00:00:04.59 bitrate=11418.2kbits/s speed=0.0144x elapsed=0:05:18.07    \nframe=  552 fps=1.7 q=30.0 size=    6400KiB time=00:00:04.60 bitrate=11397.6kbits/s speed=0.0144x elapsed=0:05:18.59    \nframe=  553 fps=1.7 q=29.0 size=    6400KiB time=00:00:04.60 bitrate=11377.0kbits/s speed=0.0144x elapsed=0:05:19.11    \nframe=  554 fps=1.7 q=31.0 size=    6400KiB time=00:00:04.61 bitrate=11356.4kbits/s speed=0.0144x elapsed=0:05:19.62    \nframe=  555 fps=1.7 q=30.0 size=    6400KiB time=00:00:04.62 bitrate=11336.0kbits/s speed=0.0144x elapsed=0:05:20.13    \nframe=  556 fps=1.7 q=18.0 size=    6400KiB time=00:00:04.63 bitrate=11315.6kbits/s speed=0.0144x elapsed=0:05:20.66    \nframe=  557 fps=1.7 q=31.0 size=    6400KiB time=00:00:04.64 bitrate=11295.3kbits/s speed=0.0145x elapsed=0:05:21.17    \nframe=  558 fps=1.7 q=27.0 size=    6400KiB time=00:00:04.65 bitrate=11275.0kbits/s speed=0.0145x elapsed=0:05:21.68    \nframe=  559 fps=1.7 q=30.0 size=    6400KiB time=00:00:04.65 bitrate=11254.8kbits/s speed=0.0145x elapsed=0:05:22.19    \nframe=  560 fps=1.7 q=29.0 size=    6400KiB time=00:00:04.66 bitrate=11234.7kbits/s speed=0.0145x elapsed=0:05:22.71    \nframe=  561 fps=1.7 q=31.0 size=    6400KiB time=00:00:04.67 bitrate=11214.7kbits/s speed=0.0145x elapsed=0:05:23.23    \nframe=  561 fps=1.7 q=31.0 size=    6400KiB time=00:00:04.67 bitrate=11214.7kbits/s speed=0.0144x elapsed=0:05:23.74    \nframe=  562 fps=1.7 q=30.0 size=    6400KiB time=00:00:04.68 bitrate=11194.8kbits/s speed=0.0144x elapsed=0:05:24.27    \nframe=  562 fps=1.7 q=30.0 size=    6400KiB time=00:00:04.68 bitrate=11194.8kbits/s speed=0.0144x elapsed=0:05:24.79    \nframe=  563 fps=1.7 q=18.0 size=    6400KiB time=00:00:04.69 bitrate=11174.9kbits/s speed=0.0144x elapsed=0:05:25.33    \nframe=  564 fps=1.7 q=31.0 size=    6400KiB time=00:00:04.70 bitrate=11155.1kbits/s speed=0.0144x elapsed=0:05:25.85    \nframe=  565 fps=1.7 q=27.0 size=    6400KiB time=00:00:04.70 bitrate=11135.3kbits/s speed=0.0144x elapsed=0:05:26.37    \nframe=  565 fps=1.7 q=27.0 size=    6400KiB time=00:00:04.70 bitrate=11135.3kbits/s speed=0.0144x elapsed=0:05:26.89    \nframe=  566 fps=1.7 q=30.0 size=    6400KiB time=00:00:04.71 bitrate=11115.6kbits/s speed=0.0144x elapsed=0:05:27.41    \nframe=  567 fps=1.7 q=29.0 size=    6400KiB time=00:00:04.72 bitrate=11096.0kbits/s speed=0.0144x elapsed=0:05:27.94    \nframe=  568 fps=1.7 q=31.0 size=    6400KiB time=00:00:04.73 bitrate=11076.5kbits/s speed=0.0144x elapsed=0:05:28.46    \nframe=  569 fps=1.7 q=30.0 size=    6400KiB time=00:00:04.74 bitrate=11057.0kbits/s speed=0.0144x elapsed=0:05:28.98    \nframe=  569 fps=1.7 q=30.0 size=    6400KiB time=00:00:04.74 bitrate=11057.0kbits/s speed=0.0144x elapsed=0:05:29.49    \nframe=  571 fps=1.7 q=31.0 size=    6400KiB time=00:00:04.75 bitrate=11018.3kbits/s speed=0.0144x elapsed=0:05:30.01    \nframe=  572 fps=1.7 q=27.0 size=    6400KiB time=00:00:04.76 bitrate=10999.0kbits/s speed=0.0144x elapsed=0:05:30.53    \nframe=  573 fps=1.7 q=30.0 size=    6400KiB time=00:00:04.77 bitrate=10979.9kbits/s speed=0.0144x elapsed=0:05:31.05    \nframe=  574 fps=1.7 q=29.0 size=    6400KiB time=00:00:04.78 bitrate=10960.7kbits/s speed=0.0144x elapsed=0:05:31.57    \nframe=  575 fps=1.7 q=31.0 size=    6400KiB time=00:00:04.79 bitrate=10941.7kbits/s speed=0.0144x elapsed=0:05:32.08    \nframe=  575 fps=1.7 q=31.0 size=    6400KiB time=00:00:04.79 bitrate=10941.7kbits/s speed=0.0144x elapsed=0:05:32.61    \nframe=  576 fps=1.7 q=31.0 size=    6400KiB time=00:00:04.80 bitrate=10922.7kbits/s speed=0.0144x elapsed=0:05:33.13    \nframe=  576 fps=1.7 q=31.0 size=    6400KiB time=00:00:04.80 bitrate=10922.7kbits/s speed=0.0144x elapsed=0:05:33.65    \nframe=  576 fps=1.7 q=31.0 size=    6400KiB time=00:00:04.80 bitrate=10922.7kbits/s speed=0.0144x elapsed=0:05:34.17    \nframe=  576 fps=1.7 q=31.0 size=    6400KiB time=00:00:04.80 bitrate=10922.7kbits/s speed=0.0143x elapsed=0:05:34.70    \nframe=  576 fps=1.7 q=31.0 size=    6400KiB time=00:00:04.80 bitrate=10922.7kbits/s speed=0.0143x elapsed=0:05:35.21    \nframe=  576 fps=1.7 q=31.0 size=    6400KiB time=00:00:04.80 bitrate=10922.7kbits/s speed=0.0143x elapsed=0:05:35.73    \nframe=  576 fps=1.7 q=31.0 size=    6400KiB time=00:00:04.80 bitrate=10922.7kbits/s speed=0.0143x elapsed=0:05:36.24    \nframe=  576 fps=1.7 q=31.0 size=    6400KiB time=00:00:04.80 bitrate=10922.7kbits/s speed=0.0143x elapsed=0:05:36.76    \nframe=  576 fps=1.7 q=31.0 size=    6400KiB time=00:00:04.80 bitrate=10922.7kbits/s speed=0.0142x elapsed=0:05:37.27    \nframe=  576 fps=1.7 q=31.0 size=    6400KiB time=00:00:04.80 bitrate=10922.7kbits/s speed=0.0142x elapsed=0:05:37.79    \nframe=  576 fps=1.7 q=31.0 size=    6400KiB time=00:00:04.80 bitrate=10922.7kbits/s speed=0.0142x elapsed=0:05:38.31    \nframe=  576 fps=1.7 q=31.0 size=    6400KiB time=00:00:04.80 bitrate=10922.7kbits/s speed=0.0142x elapsed=0:05:38.82    \nframe=  576 fps=1.7 q=31.0 size=    6400KiB time=00:00:04.80 bitrate=10922.7kbits/s speed=0.0141x elapsed=0:05:39.33    \nframe=  576 fps=1.7 q=31.0 size=    6400KiB time=00:00:04.80 bitrate=10922.7kbits/s speed=0.0141x elapsed=0:05:39.85    \nframe=  576 fps=1.7 q=31.0 size=    6400KiB time=00:00:04.80 bitrate=10922.7kbits/s speed=0.0141x elapsed=0:05:40.37    \nframe=  576 fps=1.7 q=31.0 size=    6400KiB time=00:00:04.80 bitrate=10922.7kbits/s speed=0.0141x elapsed=0:05:40.88    \nframe=  576 fps=1.7 q=31.0 size=    6400KiB time=00:00:04.80 bitrate=10922.7kbits/s speed=0.0141x elapsed=0:05:41.41    \nframe=  576 fps=1.7 q=31.0 size=    6400KiB time=00:00:04.80 bitrate=10922.7kbits/s speed=0.014x elapsed=0:05:41.92    \nframe=  576 fps=1.7 q=31.0 size=    6400KiB time=00:00:04.80 bitrate=10922.7kbits/s speed=0.014x elapsed=0:05:42.43    \nframe=  576 fps=1.7 q=31.0 size=    6400KiB time=00:00:04.80 bitrate=10922.7kbits/s speed=0.014x elapsed=0:05:42.95    \nframe=  576 fps=1.7 q=31.0 size=    6400KiB time=00:00:04.80 bitrate=10922.7kbits/s speed=0.014x elapsed=0:05:43.49    \nframe=  576 fps=1.7 q=31.0 size=    6400KiB time=00:00:04.80 bitrate=10922.7kbits/s speed=0.014x elapsed=0:05:44.01    \nframe=  576 fps=1.7 q=31.0 size=    6400KiB time=00:00:04.80 bitrate=10922.7kbits/s speed=0.0139x elapsed=0:05:44.53    \nframe=  576 fps=1.7 q=31.0 size=    6400KiB time=00:00:04.80 bitrate=10922.7kbits/s speed=0.0139x elapsed=0:05:45.05    \nframe=  576 fps=1.7 q=31.0 size=    6400KiB time=00:00:04.80 bitrate=10922.7kbits/s speed=0.0139x elapsed=0:05:45.57    \nframe=  576 fps=1.7 q=31.0 size=    6400KiB time=00:00:04.80 bitrate=10922.7kbits/s speed=0.0139x elapsed=0:05:46.09    \n[out#0/webm @ 0000024bbc759480] video:7719KiB audio:0KiB subtitle:0KiB other streams:0KiB global headers:0KiB muxing overhead: 0.061967%\nframe=  600 fps=1.7 q=27.0 Lsize=    7724KiB time=00:00:05.00 bitrate=12654.5kbits/s speed=0.0144x elapsed=0:05:46.47    \n",
  "seconds": 349.9223268032074,
  "probe_out": {}
}